<?xml version="1.0" encoding="UTF-8" standalone="no"?>
<svg xmlns:xlink="http://www.w3.org/1999/xlink" height="100%" width="100%" xmlns="http://www.w3.org/2000/svg" preserveAspectRatio="none" viewBox="0 0 100 100">
  <defs>
    <g id="sprite0" transform="matrix(1.0, 0.0, 0.0, 1.0, 0.05, 0.0)">
      <use height="237.05" transform="matrix(1.0, 0.0, 0.0, 1.0, -0.05, 0.0)" width="171.0" xlink:href="#shape0" />
    </g>
    <g id="shape0" transform="matrix(1.0, 0.0, 0.0, 1.0, 0.05, 0.0)">
      <path d="M167.7 5.2 L170.8 15.6 170.95 16.3 170.95 29.95 170.9 30.35 170.9 30.5 170.85 30.55 170.55 31.1 170.45 31.2 170.0 31.55 169.85 31.65 169.75 31.7 169.75 205.35 169.85 205.4 170.0 205.5 170.45 205.85 170.55 205.95 170.9 206.65 170.9 206.75 170.95 207.1 170.95 220.75 170.8 221.45 167.7 231.85 167.65 231.9 167.65 231.95 Q167.15 233.65 165.85 234.95 164.55 236.25 162.8 236.75 L160.7 237.05 Q158.95 237.05 157.25 236.2 154.65 234.85 153.8 231.95 L153.8 231.9 153.8 231.85 150.55 221.2 150.5 220.5 150.5 209.0 150.5 208.5 150.5 207.1 150.5 206.85 150.55 206.8 150.7 206.3 151.0 205.85 151.1 205.75 151.45 205.5 151.6 205.4 151.7 205.35 151.7 132.0 98.2 132.0 98.2 133.45 Q98.15 134.45 97.45 135.15 96.75 135.8 95.85 135.85 L92.7 135.85 92.7 225.5 Q92.7 227.35 91.35 228.65 90.0 230.0 88.15 230.0 L82.75 230.0 Q80.9 230.0 79.55 228.65 78.25 227.4 78.2 225.55 L78.2 135.85 75.15 135.85 Q74.1 135.8 73.45 135.15 72.75 134.45 72.7 133.55 L72.7 132.0 19.25 132.0 19.25 205.35 19.4 205.4 19.5 205.5 19.95 205.85 20.0 205.95 20.35 206.65 20.4 206.75 20.4 207.35 20.4 208.65 20.4 208.75 20.4 220.5 20.35 221.2 17.2 231.85 17.15 231.9 17.15 231.95 Q16.65 233.65 15.35 234.95 14.05 236.25 12.3 236.75 L10.2 237.05 Q7.85 237.05 5.9 235.65 4.0 234.25 3.3 232.0 L3.25 231.9 3.25 231.85 0.05 221.2 0.0 220.5 0.0 209.05 0.0 208.5 0.0 207.1 0.1 206.55 0.1 206.45 0.35 206.0 1.0 205.45 1.15 205.4 1.15 31.7 1.0 31.6 0.35 31.05 0.1 30.6 0.0 29.75 0.0 28.6 0.0 28.05 0.0 16.6 0.05 15.85 3.25 5.25 3.25 5.2 3.25 5.15 3.3 5.1 Q3.85 3.35 5.05 2.1 6.35 0.85 8.1 0.3 11.0 -0.55 13.65 0.85 16.25 2.35 17.15 5.1 L17.15 5.15 17.2 5.2 20.35 15.85 20.4 16.6 20.4 28.0 20.4 28.5 20.4 29.7 20.4 30.25 20.35 30.4 20.35 30.45 20.0 31.1 19.95 31.2 19.5 31.55 19.4 31.65 19.25 31.7 19.25 105.05 72.7 105.05 72.7 103.5 Q72.75 102.6 73.45 101.9 74.1 101.2 75.15 101.15 L78.2 101.15 78.2 11.6 Q78.25 9.7 79.55 8.4 80.9 7.05 82.75 7.05 L88.15 7.05 Q90.0 7.05 91.35 8.4 92.7 9.75 92.7 11.6 L92.7 101.15 95.75 101.15 Q96.75 101.2 97.45 101.9 98.15 102.6 98.2 103.6 L98.2 105.05 151.7 105.05 151.7 31.7 151.6 31.65 151.45 31.55 151.1 31.3 151.0 31.2 150.65 30.65 Q150.5 30.35 150.5 29.95 L150.5 16.6 Q150.45 16.2 150.55 15.85 L153.8 5.2 153.8 5.15 153.85 5.1 Q154.4 3.35 155.6 2.1 156.9 0.85 158.65 0.3 161.55 -0.55 164.2 0.85 166.8 2.3 167.65 5.15 L167.7 5.2" fill="#ffffff" fill-rule="evenodd" stroke="none" class="fill" />
    </g>
    <g id="sprite1" transform="matrix(1.0, 0.0, 0.0, 1.0, 0.05, 0.0)">
      <use height="237.05" transform="matrix(1.0, 0.0, 0.0, 1.0, -0.05, 0.0)" width="171.0" xlink:href="#shape1" />
    </g>
    <g id="shape1" transform="matrix(1.0, 0.0, 0.0, 1.0, 0.05, 0.0)">
      <path d="M73.35 122.3 Q72.85 121.8 72.85 121.15 72.85 120.5 73.35 120.05 73.8 119.55 74.45 119.55 L78.05 119.55 Q78.7 119.55 79.15 120.05 79.65 120.5 79.65 121.15 79.65 121.8 79.15 122.3 78.7 122.75 78.05 122.75 L74.45 122.75 73.35 122.3" fill="#231f20" fill-rule="evenodd" stroke="none" class="line" />
      <path d="M78.05 117.45 L74.45 117.45 Q73.8 117.45 73.35 116.95 72.85 116.5 72.85 115.85 72.85 115.2 73.35 114.7 73.8 114.25 74.45 114.25 L78.05 114.25 Q78.7 114.25 79.15 114.7 79.65 115.2 79.65 115.85 79.65 116.5 79.15 116.95 78.7 117.45 78.05 117.45" fill="#231f20" fill-rule="evenodd" stroke="none" class="line" />
      <path d="M95.65 135.85 Q95.0 135.85 94.55 135.4 94.05 134.9 94.05 134.25 94.05 133.1 95.1 132.75 95.5 131.75 96.6 131.75 97.25 131.75 97.7 132.2 98.2 132.7 98.2 133.35 98.2 134.4 97.45 135.15 96.7 135.85 95.65 135.85" fill="#231f20" fill-rule="evenodd" stroke="none" class="line" />
      <path d="M75.2 135.85 Q74.15 135.85 73.45 135.15 72.7 134.4 72.7 133.35 72.7 132.7 73.15 132.2 73.65 131.75 74.3 131.75 75.4 131.75 75.8 132.75 76.8 133.2 76.8 134.25 76.8 134.9 76.3 135.4 75.85 135.85 75.2 135.85" fill="#231f20" fill-rule="evenodd" stroke="none" class="line" />
      <path d="M74.3 134.95 L73.15 134.5 Q72.7 134.05 72.7 133.35 L72.7 131.3 Q72.7 130.65 73.15 130.15 73.65 129.7 74.3 129.7 75.0 129.7 75.45 130.15 75.9 130.65 75.9 131.3 L75.9 133.35 Q75.9 134.05 75.45 134.5 75.0 134.95 74.3 134.95" fill="#231f20" fill-rule="evenodd" stroke="none" class="line" />
      <path d="M95.0 133.35 L95.0 131.3 Q95.0 130.65 95.45 130.15 95.95 129.7 96.6 129.7 97.25 129.7 97.7 130.15 98.2 130.65 98.2 131.3 L98.2 133.35 Q98.2 134.0 97.7 134.5 97.25 134.95 96.6 134.95 95.95 134.95 95.45 134.5 95.0 134.05 95.0 133.35" fill="#231f20" fill-rule="evenodd" stroke="none" class="line" />
      <path d="M96.6 132.9 Q95.5 132.9 95.1 131.9 94.05 131.45 94.05 130.4 94.05 129.75 94.55 129.25 95.0 128.8 95.65 128.8 96.75 128.8 97.45 129.55 98.2 130.25 98.2 131.3 98.2 131.95 97.7 132.4 97.25 132.9 96.6 132.9" fill="#231f20" fill-rule="evenodd" stroke="none" class="line" />
      <path d="M74.3 132.9 Q73.65 132.9 73.15 132.4 72.7 131.95 72.7 131.3 72.7 130.25 73.45 129.55 74.15 128.8 75.2 128.8 75.85 128.8 76.3 129.25 76.8 129.75 76.8 130.4 76.8 131.45 75.8 131.9 75.35 132.9 74.3 132.9" fill="#231f20" fill-rule="evenodd" stroke="none" class="line" />
      <path d="M96.6 105.25 Q95.5 105.25 95.1 104.25 94.05 103.9 94.05 102.75 94.05 102.1 94.55 101.65 95.0 101.15 95.65 101.15 96.7 101.15 97.45 101.9 98.2 102.65 98.2 103.65 98.2 104.3 97.7 104.8 97.25 105.25 96.6 105.25" fill="#231f20" fill-rule="evenodd" stroke="none" class="line" />
      <path d="M74.3 105.25 L73.15 104.8 Q72.7 104.35 72.7 103.65 72.7 102.65 73.45 101.9 74.15 101.15 75.2 101.15 75.85 101.15 76.3 101.65 76.8 102.1 76.8 102.75 76.8 103.85 75.8 104.25 75.4 105.25 74.3 105.25" fill="#231f20" fill-rule="evenodd" stroke="none" class="line" />
      <path d="M95.65 108.25 Q95.0 108.25 94.55 107.75 94.05 107.3 94.05 106.65 94.05 105.5 95.1 105.15 95.5 104.15 96.6 104.15 97.25 104.15 97.7 104.6 98.2 105.1 98.2 105.75 98.2 106.75 97.45 107.5 96.7 108.25 95.65 108.25" fill="#231f20" fill-rule="evenodd" stroke="none" class="line" />
      <path d="M75.2 108.25 Q74.15 108.25 73.45 107.5 72.7 106.75 72.7 105.75 72.7 105.1 73.15 104.6 73.65 104.15 74.3 104.15 75.4 104.15 75.8 105.15 76.8 105.55 76.8 106.65 76.8 107.3 76.3 107.75 75.85 108.25 75.2 108.25" fill="#231f20" fill-rule="evenodd" stroke="none" class="line" />
      <path d="M73.15 102.5 Q73.65 102.05 74.3 102.05 75.0 102.05 75.45 102.5 75.9 103.0 75.9 103.65 L75.9 105.75 75.45 106.85 Q74.95 107.35 74.3 107.35 73.65 107.35 73.15 106.85 72.7 106.4 72.7 105.75 L72.7 103.65 Q72.7 103.0 73.15 102.5" fill="#231f20" fill-rule="evenodd" stroke="none" class="line" />
      <path d="M97.7 102.5 Q98.2 103.0 98.2 103.65 L98.2 105.75 Q98.2 106.4 97.7 106.85 97.25 107.35 96.6 107.35 95.95 107.35 95.45 106.85 95.0 106.4 95.0 105.75 L95.0 103.65 Q95.0 103.0 95.45 102.5 95.95 102.05 96.6 102.05 97.25 102.05 97.7 102.5" fill="#231f20" fill-rule="evenodd" stroke="none" class="line" />
      <path d="M91.1 108.25 Q90.45 108.25 89.95 107.75 89.5 107.3 89.5 106.6 89.5 105.95 89.95 105.5 90.4 105.05 91.1 105.05 91.8 105.05 92.2 105.5 92.7 106.0 92.7 106.6 92.7 107.25 92.2 107.75 91.7 108.25 91.1 108.25" fill="#231f20" fill-rule="evenodd" stroke="none" class="line" />
      <path d="M92.7 61.25 L92.7 102.75 Q92.7 103.4 92.2 103.9 91.75 104.35 91.1 104.35 90.45 104.35 89.95 103.9 89.5 103.45 89.5 102.75 L89.5 61.25 Q89.5 60.6 89.95 60.1 90.45 59.65 91.1 59.65 91.75 59.65 92.2 60.1 92.7 60.6 92.7 61.25" fill="#231f20" fill-rule="evenodd" stroke="none" class="line" />
      <path d="M92.7 134.25 L92.7 175.8 Q92.7 176.45 92.2 176.95 91.75 177.45 91.1 177.45 90.45 177.45 89.95 176.95 89.5 176.5 89.5 175.8 L89.5 134.25 Q89.5 133.6 89.95 133.1 90.45 132.65 91.1 132.65 91.75 132.65 92.2 133.1 92.7 133.6 92.7 134.25" fill="#231f20" fill-rule="evenodd" stroke="none" class="line" />
      <path d="M91.1 132.0 Q90.4 132.0 89.95 131.55 89.5 131.1 89.5 130.4 89.5 129.7 89.95 129.25 90.4 128.8 91.1 128.8 91.8 128.8 92.2 129.25 92.7 129.75 92.7 130.4 92.7 131.05 92.2 131.55 91.75 132.0 91.1 132.0" fill="#231f20" fill-rule="evenodd" stroke="none" class="line" />
      <path d="M79.8 132.0 Q79.1 132.0 78.65 131.55 78.15 131.05 78.15 130.4 78.15 129.75 78.65 129.25 79.1 128.8 79.8 128.8 80.45 128.8 80.9 129.25 81.4 129.75 81.4 130.4 81.4 131.05 80.9 131.55 80.45 132.0 79.8 132.0" fill="#231f20" fill-rule="evenodd" stroke="none" class="line" />
      <path d="M80.9 133.1 Q81.4 133.6 81.4 134.25 L81.4 175.8 Q81.4 176.45 80.9 176.95 80.45 177.45 79.8 177.45 79.15 177.45 78.65 176.95 78.2 176.5 78.2 175.8 L78.2 134.25 Q78.2 133.6 78.65 133.1 79.15 132.65 79.8 132.65 80.45 132.65 80.9 133.1" fill="#231f20" fill-rule="evenodd" stroke="none" class="line" />
      <path d="M80.9 60.1 Q81.4 60.6 81.4 61.25 L81.4 102.75 Q81.4 103.4 80.9 103.9 80.45 104.35 79.8 104.35 79.15 104.35 78.65 103.9 78.2 103.45 78.2 102.75 L78.2 61.25 Q78.2 60.6 78.65 60.1 79.15 59.65 79.8 59.65 80.45 59.65 80.9 60.1" fill="#231f20" fill-rule="evenodd" stroke="none" class="line" />
      <path d="M79.8 108.25 Q79.15 108.25 78.65 107.75 78.15 107.25 78.15 106.65 78.15 106.0 78.65 105.5 79.1 105.05 79.8 105.05 80.45 105.05 80.9 105.5 81.4 106.0 81.4 106.65 L80.9 107.75 Q80.4 108.25 79.8 108.25" fill="#231f20" fill-rule="evenodd" stroke="none" class="line" />
      <path d="M80.9 174.7 Q81.4 175.15 81.4 175.8 81.4 176.4 81.8 176.8 82.2 177.2 82.8 177.2 83.45 177.2 83.9 177.65 84.4 178.15 84.4 178.8 84.4 179.45 83.9 179.95 83.45 180.4 82.8 180.4 80.9 180.4 79.55 179.05 78.2 177.7 78.2 175.8 78.2 175.15 78.65 174.7 79.15 174.2 79.8 174.2 80.45 174.2 80.9 174.7" fill="#231f20" fill-rule="evenodd" stroke="none" class="line" />
      <path d="M91.35 179.05 Q90.0 180.4 88.1 180.4 87.45 180.4 86.95 179.95 86.5 179.5 86.5 178.8 86.5 178.15 86.95 177.65 87.45 177.2 88.1 177.2 88.65 177.2 89.1 176.8 89.5 176.4 89.5 175.8 89.5 175.15 89.95 174.7 90.45 174.2 91.1 174.2 91.75 174.2 92.2 174.7 92.7 175.15 92.7 175.8 92.7 177.7 91.35 179.05" fill="#231f20" fill-rule="evenodd" stroke="none" class="line" />
      <path d="M92.7 61.25 Q92.7 61.9 92.2 62.4 91.75 62.85 91.1 62.85 90.45 62.85 89.95 62.4 89.5 61.95 89.5 61.25 89.5 60.65 89.1 60.25 88.7 59.85 88.1 59.85 87.45 59.85 86.95 59.4 86.5 58.95 86.5 58.25 86.5 57.6 86.95 57.15 87.45 56.65 88.1 56.65 90.0 56.65 91.35 58.0 92.7 59.35 92.7 61.25" fill="#231f20" fill-rule="evenodd" stroke="none" class="line" />
      <path d="M81.4 61.25 Q81.4 61.9 80.9 62.4 80.45 62.85 79.8 62.85 79.15 62.85 78.65 62.4 78.2 61.95 78.2 61.25 78.2 59.35 79.55 58.0 80.9 56.65 82.8 56.65 83.45 56.65 83.9 57.15 84.4 57.6 84.4 58.25 84.4 58.9 83.9 59.4 83.45 59.85 82.8 59.85 82.2 59.85 81.8 60.25 81.4 60.65 81.4 61.25" fill="#231f20" fill-rule="evenodd" stroke="none" class="line" />
      <path d="M91.35 228.65 Q90.0 230.0 88.1 230.0 87.45 230.0 86.95 229.5 86.5 229.05 86.5 228.4 86.5 227.75 86.95 227.25 87.45 226.8 88.1 226.8 88.65 226.8 89.1 226.4 89.5 226.0 89.5 225.45 89.5 224.75 89.95 224.3 90.45 223.8 91.1 223.8 91.75 223.8 92.2 224.3 92.7 224.8 92.7 225.45 92.7 227.35 91.35 228.65" fill="#231f20" fill-rule="evenodd" stroke="none" class="line" />
      <path d="M82.8 230.0 Q80.9 230.0 79.55 228.65 78.2 227.35 78.2 225.45 78.2 224.75 78.65 224.3 79.15 223.8 79.8 223.8 80.45 223.8 80.9 224.3 81.4 224.8 81.4 225.45 81.4 226.0 81.8 226.4 82.2 226.8 82.8 226.8 83.45 226.8 83.9 227.25 84.4 227.75 84.4 228.4 84.4 229.05 83.9 229.5 83.45 230.0 82.8 230.0" fill="#231f20" fill-rule="evenodd" stroke="none" class="line" />
      <path d="M80.9 174.7 Q81.4 175.15 81.4 175.8 L81.4 225.45 Q81.4 226.1 80.9 226.55 80.45 227.05 79.8 227.05 79.15 227.05 78.65 226.55 78.2 226.1 78.2 225.45 L78.2 175.8 Q78.2 175.15 78.65 174.7 79.15 174.2 79.8 174.2 80.45 174.2 80.9 174.7" fill="#231f20" fill-rule="evenodd" stroke="none" class="line" />
      <path d="M81.4 61.25 Q81.4 61.9 80.9 62.4 80.45 62.85 79.8 62.85 79.15 62.85 78.65 62.4 78.2 61.95 78.2 61.25 L78.2 11.65 Q78.2 11.0 78.65 10.5 79.15 10.05 79.8 10.05 80.45 10.05 80.9 10.5 81.4 11.0 81.4 11.65 L81.4 61.25" fill="#231f20" fill-rule="evenodd" stroke="none" class="line" />
      <path d="M92.7 11.65 L92.7 61.25 Q92.7 61.9 92.2 62.4 91.75 62.85 91.1 62.85 90.45 62.85 89.95 62.4 89.5 61.95 89.5 61.25 L89.5 11.65 Q89.5 11.0 89.95 10.5 90.45 10.05 91.1 10.05 91.75 10.05 92.2 10.5 92.7 11.0 92.7 11.65" fill="#231f20" fill-rule="evenodd" stroke="none" class="line" />
      <path d="M92.7 175.8 L92.7 225.45 Q92.7 226.1 92.2 226.55 91.75 227.05 91.1 227.05 90.45 227.05 89.95 226.55 89.5 226.1 89.5 225.45 L89.5 175.8 Q89.5 175.15 89.95 174.7 90.45 174.2 91.1 174.2 91.75 174.2 92.2 174.7 92.7 175.15 92.7 175.8" fill="#231f20" fill-rule="evenodd" stroke="none" class="line" />
      <path d="M92.7 11.65 Q92.7 12.3 92.2 12.8 91.75 13.25 91.1 13.25 90.45 13.25 89.95 12.8 89.5 12.35 89.5 11.65 89.5 11.1 89.1 10.65 88.65 10.25 88.1 10.25 87.45 10.25 86.95 9.8 86.5 9.35 86.5 8.65 86.5 8.0 86.95 7.55 87.45 7.05 88.1 7.05 90.0 7.05 91.35 8.4 92.7 9.75 92.7 11.65" fill="#231f20" fill-rule="evenodd" stroke="none" class="line" />
      <path d="M81.4 11.65 Q81.4 12.3 80.9 12.8 80.45 13.25 79.8 13.25 79.15 13.25 78.65 12.8 78.2 12.35 78.2 11.65 78.2 9.75 79.55 8.4 80.9 7.05 82.8 7.05 83.45 7.05 83.9 7.55 84.4 8.0 84.4 8.65 84.4 9.3 83.9 9.8 83.45 10.25 82.8 10.25 82.2 10.25 81.8 10.65 81.4 11.1 81.4 11.65" fill="#231f20" fill-rule="evenodd" stroke="none" class="line" />
      <path d="M64.55 121.1 Q64.1 120.65 64.1 120.0 64.1 119.35 64.55 118.85 65.05 118.4 65.7 118.4 L67.45 118.4 Q68.1 118.4 68.55 118.85 69.05 119.35 69.05 120.0 69.05 120.65 68.55 121.1 68.1 121.6 67.45 121.6 L65.7 121.6 Q65.05 121.6 64.55 121.1" fill="#231f20" fill-rule="evenodd" stroke="none" class="line" />
      <path d="M69.1 117.1 Q69.65 117.45 69.85 118.1 70.0 118.75 69.65 119.3 L68.8 120.8 Q68.3 121.6 67.4 121.6 L66.6 121.35 Q66.05 121.0 65.9 120.4 65.7 119.75 66.05 119.2 L66.9 117.7 Q67.25 117.15 67.85 116.95 L69.1 117.1" fill="#231f20" fill-rule="evenodd" stroke="none" class="line" />
      <path d="M66.6 115.65 L67.85 115.5 Q68.45 115.65 68.8 116.25 L69.65 117.7 Q70.0 118.25 69.85 118.9 L69.1 119.9 68.3 120.1 Q67.4 120.1 66.9 119.3 L66.05 117.85 Q65.7 117.3 65.9 116.65 66.05 116.0 66.6 115.65" fill="#231f20" fill-rule="evenodd" stroke="none" class="line" />
      <path d="M68.55 115.9 Q69.05 116.4 69.05 117.05 69.05 117.7 68.55 118.2 68.1 118.65 67.45 118.65 L65.7 118.65 Q65.05 118.65 64.55 118.2 64.1 117.75 64.1 117.05 64.1 116.4 64.55 115.9 65.05 115.45 65.7 115.45 L67.45 115.45 Q68.1 115.45 68.55 115.9" fill="#231f20" fill-rule="evenodd" stroke="none" class="line" />
      <path d="M67.25 116.6 Q67.45 117.25 67.1 117.85 L66.25 119.3 Q65.75 120.1 64.85 120.1 L64.05 119.9 Q63.5 119.55 63.3 118.9 63.15 118.25 63.45 117.7 L64.3 116.25 Q64.65 115.65 65.3 115.5 L66.5 115.65 Q67.05 116.0 67.25 116.6" fill="#231f20" fill-rule="evenodd" stroke="none" class="line" />
      <path d="M65.3 116.95 L66.25 117.7 67.1 119.2 Q67.45 119.75 67.25 120.4 67.05 121.05 66.5 121.35 L65.7 121.6 Q64.8 121.6 64.3 120.8 L63.45 119.3 Q63.15 118.75 63.3 118.1 63.5 117.45 64.05 117.1 L65.3 116.95" fill="#231f20" fill-rule="evenodd" stroke="none" class="line" />
      <path d="M69.6 115.5 Q70.85 116.75 70.85 118.5 70.85 120.25 69.6 121.5 68.35 122.75 66.6 122.75 64.85 122.75 63.55 121.5 62.3 120.25 62.3 118.5 62.3 116.75 63.55 115.5 64.85 114.25 66.6 114.25 68.35 114.25 69.6 115.5 M66.6 119.55 L67.35 119.25 67.65 118.5 67.35 117.75 66.6 117.45 Q66.15 117.45 65.85 117.75 65.5 118.05 65.5 118.5 65.5 118.95 65.85 119.25 66.15 119.55 66.6 119.55" fill="#231f20" fill-rule="evenodd" stroke="none" class="line" />
      <path d="M106.85 117.25 Q106.8 117.9 106.35 118.3 105.9 118.75 105.25 118.75 L105.1 118.7 103.45 118.55 Q102.75 118.5 102.35 118.0 101.95 117.45 102.0 116.8 102.1 116.15 102.6 115.75 103.1 115.3 103.75 115.35 L105.4 115.55 Q106.05 115.6 106.5 116.1 106.95 116.6 106.85 117.25" fill="#231f20" fill-rule="evenodd" stroke="none" class="line" />
      <path d="M102.6 119.95 L101.7 119.65 Q101.15 119.3 101.05 118.6 100.9 117.95 101.3 117.4 L102.3 116.05 Q102.65 115.5 103.35 115.4 103.95 115.25 104.5 115.65 105.05 116.0 105.15 116.7 105.3 117.35 104.9 117.9 L103.9 119.25 Q103.45 119.95 102.6 119.95" fill="#231f20" fill-rule="evenodd" stroke="none" class="line" />
      <path d="M103.3 121.5 Q102.25 121.5 101.85 120.55 L101.15 119.0 Q100.9 118.4 101.1 117.8 101.35 117.15 101.95 116.9 L103.15 116.85 Q103.8 117.1 104.05 117.7 L104.75 119.25 Q105.05 119.85 104.8 120.45 104.55 121.1 103.95 121.35 L103.3 121.5" fill="#231f20" fill-rule="evenodd" stroke="none" class="line" />
      <path d="M106.25 119.05 Q106.7 119.6 106.6 120.25 106.55 120.85 106.05 121.25 105.6 121.65 105.0 121.65 L104.85 121.65 103.15 121.5 Q102.5 121.45 102.05 120.9 101.65 120.4 101.7 119.7 101.8 119.05 102.3 118.65 102.8 118.25 103.45 118.3 L105.15 118.45 106.25 119.05" fill="#231f20" fill-rule="evenodd" stroke="none" class="line" />
      <path d="M105.0 121.65 L104.1 121.35 Q103.55 121.0 103.45 120.35 103.3 119.7 103.7 119.15 L104.65 117.75 Q105.05 117.2 105.7 117.1 106.35 116.95 106.9 117.35 107.45 117.7 107.55 118.4 107.7 119.05 107.3 119.6 L106.3 121.0 Q105.85 121.65 105.0 121.65" fill="#231f20" fill-rule="evenodd" stroke="none" class="line" />
      <path d="M104.6 115.65 L105.8 115.6 Q106.45 115.85 106.7 116.45 L107.45 118.0 107.5 119.2 Q107.25 119.85 106.65 120.1 L106.0 120.25 Q104.95 120.25 104.55 119.35 L103.8 117.8 Q103.55 117.2 103.75 116.6 104.0 115.95 104.6 115.65" fill="#231f20" fill-rule="evenodd" stroke="none" class="line" />
      <path d="M104.3 114.25 Q106.05 114.25 107.3 115.5 108.55 116.75 108.55 118.5 108.55 120.25 107.3 121.5 106.05 122.75 104.3 122.75 102.55 122.75 101.3 121.5 100.05 120.25 100.05 118.5 100.05 116.75 101.3 115.5 102.55 114.25 104.3 114.25 M103.25 118.5 Q103.25 118.95 103.55 119.25 103.85 119.55 104.3 119.55 104.75 119.55 105.05 119.25 L105.35 118.5 105.05 117.75 Q104.75 117.45 104.3 117.45 103.85 117.45 103.55 117.75 103.25 118.05 103.25 118.5" fill="#231f20" fill-rule="evenodd" stroke="none" class="line" />
      <path d="M73.3 114.75 Q73.8 114.25 74.45 114.25 75.1 114.25 75.6 114.75 76.05 115.2 76.05 115.85 L76.05 121.15 75.6 122.3 74.45 122.75 Q73.8 122.75 73.3 122.3 72.85 121.85 72.85 121.15 L72.85 115.85 Q72.85 115.2 73.3 114.75" fill="#231f20" fill-rule="evenodd" stroke="none" class="line" />
      <path d="M75.2 132.65 L95.65 132.65 Q96.35 132.65 96.8 133.1 97.25 133.6 97.25 134.25 L96.8 135.4 Q96.35 135.85 95.65 135.85 L75.2 135.85 Q74.55 135.85 74.05 135.4 73.6 134.95 73.6 134.25 73.6 133.6 74.05 133.1 74.55 132.65 75.2 132.65" fill="#231f20" fill-rule="evenodd" stroke="none" class="line" />
      <path d="M79.8 132.0 L75.2 132.0 Q74.55 132.0 74.05 131.55 73.6 131.1 73.6 130.4 73.6 129.75 74.05 129.25 74.55 128.8 75.2 128.8 L79.8 128.8 Q80.5 128.8 80.95 129.25 81.4 129.75 81.4 130.4 81.4 131.1 80.95 131.55 80.5 132.0 79.8 132.0" fill="#231f20" fill-rule="evenodd" stroke="none" class="line" />
      <path d="M95.65 132.0 L91.1 132.0 Q90.4 132.0 89.95 131.55 89.45 131.05 89.45 130.4 89.45 129.75 89.95 129.25 90.4 128.8 91.1 128.8 L95.65 128.8 Q96.35 128.8 96.8 129.25 97.25 129.75 97.25 130.4 L96.8 131.55 Q96.35 132.0 95.65 132.0" fill="#231f20" fill-rule="evenodd" stroke="none" class="line" />
      <path d="M75.2 101.15 L95.65 101.15 Q96.3 101.15 96.8 101.65 97.25 102.1 97.25 102.75 L96.8 103.9 Q96.35 104.35 95.65 104.35 L75.2 104.35 Q74.55 104.35 74.05 103.9 73.6 103.45 73.6 102.75 73.6 102.1 74.05 101.65 74.55 101.15 75.2 101.15" fill="#231f20" fill-rule="evenodd" stroke="none" class="line" />
      <path d="M95.65 108.25 L91.1 108.25 Q90.45 108.25 89.95 107.75 89.45 107.3 89.45 106.65 89.45 106.0 89.95 105.5 90.4 105.05 91.1 105.05 L95.65 105.05 Q96.35 105.05 96.8 105.5 97.25 106.0 97.25 106.65 97.25 107.3 96.8 107.75 96.3 108.25 95.65 108.25" fill="#231f20" fill-rule="evenodd" stroke="none" class="line" />
      <path d="M79.8 108.25 L75.2 108.25 Q74.55 108.25 74.05 107.75 73.6 107.3 73.6 106.65 73.6 106.0 74.05 105.5 74.55 105.05 75.2 105.05 L79.8 105.05 Q80.5 105.05 80.95 105.5 81.4 106.0 81.4 106.65 L80.95 107.75 Q80.45 108.25 79.8 108.25" fill="#231f20" fill-rule="evenodd" stroke="none" class="line" />
      <path d="M87.05 178.8 Q87.05 179.5 86.6 179.95 86.15 180.4 85.45 180.4 L82.8 180.4 Q82.15 180.4 81.65 179.95 81.2 179.5 81.2 178.8 81.2 178.15 81.65 177.65 82.15 177.2 82.8 177.2 L85.45 177.2 Q86.15 177.2 86.6 177.65 87.05 178.15 87.05 178.8" fill="#231f20" fill-rule="evenodd" stroke="none" class="line" />
      <path d="M89.25 177.65 Q89.7 178.15 89.7 178.8 L89.25 179.95 Q88.8 180.4 88.1 180.4 L85.45 180.4 Q84.8 180.4 84.3 179.95 83.85 179.5 83.85 178.8 83.85 178.15 84.3 177.65 84.8 177.2 85.45 177.2 L88.1 177.2 Q88.8 177.2 89.25 177.65" fill="#231f20" fill-rule="evenodd" stroke="none" class="line" />
      <path d="M81.65 59.4 Q81.2 58.95 81.2 58.25 81.2 57.6 81.65 57.15 82.15 56.65 82.8 56.65 L88.1 56.65 Q88.75 56.65 89.25 57.15 89.7 57.6 89.7 58.25 L89.25 59.4 Q88.8 59.85 88.1 59.85 L82.8 59.85 Q82.15 59.85 81.65 59.4" fill="#231f20" fill-rule="evenodd" stroke="none" class="line" />
      <path d="M89.25 227.25 Q89.7 227.75 89.7 228.4 89.7 229.05 89.25 229.5 88.75 230.0 88.1 230.0 L82.8 230.0 Q82.15 230.0 81.65 229.5 81.2 229.05 81.2 228.4 81.2 227.75 81.65 227.25 82.15 226.8 82.8 226.8 L88.1 226.8 Q88.8 226.8 89.25 227.25" fill="#231f20" fill-rule="evenodd" stroke="none" class="line" />
      <path d="M81.65 9.8 Q81.2 9.35 81.2 8.65 81.2 8.0 81.65 7.55 82.15 7.05 82.8 7.05 L88.1 7.05 Q88.75 7.05 89.25 7.55 89.7 8.0 89.7 8.65 L89.25 9.8 Q88.8 10.25 88.1 10.25 L82.8 10.25 Q82.15 10.25 81.65 9.8" fill="#231f20" fill-rule="evenodd" stroke="none" class="line" />
      <path d="M79.95 105.6 L90.9 105.6 Q91.55 105.6 92.05 106.1 92.5 106.55 92.5 107.2 L92.05 108.35 Q91.6 108.8 90.9 108.8 L79.95 108.8 Q79.3 108.8 78.8 108.35 78.35 107.9 78.35 107.2 78.35 106.55 78.8 106.1 79.3 105.6 79.95 105.6" fill="#231f20" fill-rule="evenodd" stroke="none" class="line" />
      <path d="M92.4 110.3 Q91.75 110.3 91.3 109.85 90.9 109.45 90.8 108.8 90.2 108.75 89.75 108.3 89.3 107.85 89.3 107.2 89.3 106.55 89.8 106.1 90.25 105.6 90.9 105.6 92.2 105.6 93.1 106.5 94.0 107.4 94.0 108.7 94.0 109.4 93.55 109.85 93.1 110.3 92.4 110.3" fill="#231f20" fill-rule="evenodd" stroke="none" class="line" />
      <path d="M91.3 107.55 Q91.75 107.1 92.4 107.1 93.1 107.1 93.55 107.55 94.0 108.05 94.0 108.7 L94.0 128.3 Q94.0 129.0 93.55 129.45 93.1 129.9 92.4 129.9 91.75 129.9 91.3 129.45 90.8 128.95 90.8 128.3 L90.8 108.7 Q90.8 108.05 91.3 107.55" fill="#231f20" fill-rule="evenodd" stroke="none" class="line" />
      <path d="M93.1 130.5 Q92.2 131.4 90.9 131.4 90.25 131.4 89.8 130.9 89.3 130.45 89.3 129.8 89.3 129.15 89.75 128.7 90.2 128.25 90.8 128.2 90.9 127.55 91.3 127.15 91.75 126.7 92.4 126.7 93.1 126.7 93.55 127.15 94.0 127.65 94.0 128.3 94.0 129.6 93.1 130.5" fill="#231f20" fill-rule="evenodd" stroke="none" class="line" />
      <path d="M80.05 128.2 Q80.7 128.25 81.1 128.7 81.55 129.15 81.55 129.8 81.55 130.45 81.1 130.9 80.6 131.4 79.95 131.4 78.65 131.4 77.75 130.5 76.85 129.6 76.85 128.3 76.85 127.65 77.35 127.15 77.8 126.7 78.45 126.7 79.1 126.7 79.55 127.15 80.0 127.55 80.05 128.2" fill="#231f20" fill-rule="evenodd" stroke="none" class="line" />
      <path d="M77.35 107.55 Q77.8 107.1 78.45 107.1 79.15 107.1 79.6 107.55 80.05 108.05 80.05 108.7 L80.05 128.3 Q80.05 129.0 79.6 129.45 79.15 129.9 78.45 129.9 77.8 129.9 77.35 129.45 76.85 128.95 76.85 128.3 L76.85 108.7 Q76.85 108.05 77.35 107.55" fill="#231f20" fill-rule="evenodd" stroke="none" class="line" />
      <path d="M78.45 110.3 Q77.8 110.3 77.35 109.85 76.85 109.35 76.85 108.7 76.85 107.4 77.75 106.5 78.65 105.6 79.95 105.6 80.6 105.6 81.1 106.1 81.55 106.55 81.55 107.2 81.55 107.85 81.1 108.3 80.7 108.75 80.05 108.8 80.0 109.45 79.55 109.85 79.1 110.3 78.45 110.3" fill="#231f20" fill-rule="evenodd" stroke="none" class="line" />
      <path d="M79.95 128.2 L90.9 128.2 Q91.6 128.2 92.05 128.65 92.5 129.15 92.5 129.8 92.5 130.45 92.05 130.9 91.55 131.4 90.9 131.4 L79.95 131.4 Q79.3 131.4 78.8 130.9 78.35 130.45 78.35 129.8 78.35 129.15 78.8 128.65 79.3 128.2 79.95 128.2" fill="#231f20" fill-rule="evenodd" stroke="none" class="line" />
      <path d="M59.9 132.0 Q58.9 132.0 58.15 131.25 57.4 130.5 57.4 129.5 57.4 128.85 57.85 128.35 58.35 127.9 59.0 127.9 60.15 127.9 60.5 128.9 61.5 129.3 61.5 130.4 61.5 131.1 61.05 131.55 60.6 132.0 59.9 132.0" fill="#231f20" fill-rule="evenodd" stroke="none" class="line" />
      <path d="M59.0 109.15 Q58.35 109.15 57.85 108.65 57.4 108.2 57.4 107.5 57.4 106.5 58.15 105.75 58.9 105.05 59.9 105.05 60.6 105.05 61.05 105.5 61.5 106.0 61.5 106.65 61.5 107.75 60.5 108.1 60.05 109.15 59.0 109.15" fill="#231f20" fill-rule="evenodd" stroke="none" class="line" />
      <path d="M111.0 108.25 L95.65 108.25 Q95.0 108.25 94.55 107.75 94.05 107.3 94.05 106.65 94.05 106.0 94.55 105.5 95.0 105.05 95.65 105.05 L111.0 105.05 Q111.65 105.05 112.1 105.5 112.6 106.0 112.6 106.65 112.6 107.3 112.1 107.75 111.65 108.25 111.0 108.25" fill="#231f20" fill-rule="evenodd" stroke="none" class="line" />
      <path d="M75.2 108.25 L59.9 108.25 Q59.25 108.25 58.75 107.75 58.3 107.3 58.3 106.65 58.3 106.0 58.75 105.5 59.25 105.05 59.9 105.05 L75.2 105.05 Q75.85 105.05 76.3 105.5 76.8 106.0 76.8 106.65 76.8 107.3 76.3 107.75 75.85 108.25 75.2 108.25" fill="#231f20" fill-rule="evenodd" stroke="none" class="line" />
      <path d="M111.85 109.15 Q110.75 109.15 110.4 108.1 109.4 107.75 109.4 106.65 109.4 106.0 109.85 105.5 110.35 105.05 111.0 105.05 112.0 105.05 112.75 105.75 113.5 106.5 113.5 107.5 113.5 108.2 113.0 108.65 112.55 109.15 111.85 109.15" fill="#231f20" fill-rule="evenodd" stroke="none" class="line" />
      <path d="M111.0 132.0 Q110.35 132.0 109.85 131.55 109.4 131.1 109.4 130.4 109.4 129.35 110.35 128.9 110.75 127.9 111.85 127.9 112.55 127.9 113.0 128.35 113.5 128.85 113.5 129.5 113.5 130.5 112.75 131.25 112.0 132.0 111.0 132.0" fill="#231f20" fill-rule="evenodd" stroke="none" class="line" />
      <path d="M58.75 131.55 Q58.3 131.1 58.3 130.4 58.3 129.75 58.75 129.25 59.25 128.8 59.9 128.8 L75.2 128.8 Q75.85 128.8 76.3 129.25 76.8 129.75 76.8 130.4 76.8 131.05 76.3 131.55 75.85 132.0 75.2 132.0 L59.9 132.0 Q59.25 132.0 58.75 131.55" fill="#231f20" fill-rule="evenodd" stroke="none" class="line" />
      <path d="M94.55 131.55 Q94.05 131.05 94.05 130.4 94.05 129.75 94.55 129.25 95.0 128.8 95.65 128.8 L111.0 128.8 Q111.65 128.8 112.1 129.25 112.6 129.75 112.6 130.4 112.6 131.05 112.1 131.55 111.65 132.0 111.0 132.0 L95.65 132.0 Q95.0 132.0 94.55 131.55" fill="#231f20" fill-rule="evenodd" stroke="none" class="line" />
      <path d="M57.85 106.4 Q58.35 105.9 59.0 105.9 59.65 105.9 60.15 106.4 L60.6 107.5 60.6 129.5 60.15 130.6 Q59.65 131.1 59.0 131.1 58.35 131.1 57.85 130.6 57.4 130.15 57.4 129.5 L57.4 107.5 Q57.4 106.85 57.85 106.4" fill="#231f20" fill-rule="evenodd" stroke="none" class="line" />
      <path d="M110.75 106.4 Q111.2 105.9 111.85 105.9 112.5 105.9 113.0 106.4 113.5 106.85 113.5 107.5 L113.5 129.5 Q113.5 130.15 113.0 130.6 112.5 131.1 111.85 131.1 111.2 131.1 110.75 130.6 110.25 130.15 110.25 129.5 L110.25 107.5 Q110.25 106.85 110.75 106.4" fill="#231f20" fill-rule="evenodd" stroke="none" class="line" />
      <path d="M76.9 107.3 Q77.4 106.85 78.05 106.85 78.7 106.85 79.15 107.3 79.65 107.8 79.65 108.45 L79.65 128.6 Q79.65 129.25 79.15 129.7 78.7 130.2 78.05 130.2 77.4 130.2 76.9 129.7 76.45 129.25 76.45 128.6 L76.45 108.45 Q76.45 107.8 76.9 107.3" fill="#231f20" fill-rule="evenodd" stroke="none" class="line" />
      <path d="M76.45 108.45 Q76.45 107.05 77.45 106.05 78.4 105.05 79.8 105.05 80.5 105.05 80.95 105.5 81.4 106.0 81.4 106.65 L80.95 107.75 Q80.45 108.25 79.8 108.25 79.65 108.25 79.65 108.45 79.65 109.1 79.15 109.55 78.7 110.05 78.05 110.05 77.4 110.05 76.9 109.55 76.45 109.1 76.45 108.45" fill="#231f20" fill-rule="evenodd" stroke="none" class="line" />
      <path d="M79.8 105.05 L91.1 105.05 Q91.75 105.05 92.2 105.5 92.7 106.0 92.7 106.65 92.7 107.3 92.2 107.75 91.75 108.25 91.1 108.25 L79.8 108.25 Q79.15 108.25 78.7 107.75 78.2 107.3 78.2 106.65 78.2 106.0 78.7 105.5 79.15 105.05 79.8 105.05" fill="#231f20" fill-rule="evenodd" stroke="none" class="line" />
      <path d="M91.75 107.3 Q92.2 106.85 92.85 106.85 93.55 106.85 94.0 107.3 94.45 107.8 94.45 108.45 L94.45 128.6 94.0 129.7 Q93.5 130.2 92.85 130.2 92.2 130.2 91.75 129.7 91.25 129.25 91.25 128.6 L91.25 108.45 Q91.25 107.8 91.75 107.3" fill="#231f20" fill-rule="evenodd" stroke="none" class="line" />
      <path d="M93.45 131.0 Q92.5 132.0 91.1 132.0 90.4 132.0 89.95 131.55 89.45 131.05 89.45 130.4 89.45 129.75 89.95 129.25 90.4 128.8 91.1 128.8 L91.25 128.6 Q91.25 127.95 91.75 127.45 92.2 127.0 92.85 127.0 93.55 127.0 94.0 127.45 94.45 127.95 94.45 128.6 94.45 130.0 93.45 131.0" fill="#231f20" fill-rule="evenodd" stroke="none" class="line" />
      <path d="M79.8 128.8 L91.1 128.8 Q91.75 128.8 92.2 129.25 92.7 129.75 92.7 130.4 92.7 131.05 92.2 131.55 91.75 132.0 91.1 132.0 L79.8 132.0 Q79.15 132.0 78.7 131.55 78.2 131.05 78.2 130.4 78.2 129.75 78.7 129.25 79.15 128.8 79.8 128.8" fill="#231f20" fill-rule="evenodd" stroke="none" class="line" />
      <path d="M78.05 127.0 Q78.7 127.0 79.15 127.45 79.65 127.95 79.65 128.6 79.65 128.8 79.8 128.8 80.5 128.8 80.95 129.25 81.4 129.75 81.4 130.4 81.4 131.1 80.95 131.55 80.5 132.0 79.8 132.0 78.4 132.0 77.45 131.0 76.45 130.0 76.45 128.6 76.45 127.95 76.9 127.45 77.4 127.0 78.05 127.0" fill="#231f20" fill-rule="evenodd" stroke="none" class="line" />
      <path d="M92.85 110.05 Q92.2 110.05 91.75 109.55 91.25 109.1 91.25 108.45 L91.1 108.25 Q90.45 108.25 89.95 107.75 89.45 107.3 89.45 106.65 89.45 106.0 89.95 105.5 90.4 105.05 91.1 105.05 92.5 105.05 93.45 106.05 94.45 107.05 94.45 108.45 L94.0 109.55 Q93.5 110.05 92.85 110.05" fill="#231f20" fill-rule="evenodd" stroke="none" class="line" />
      <path d="M168.2 15.75 Q168.65 15.25 169.3 15.25 170.0 15.25 170.45 15.75 170.95 16.25 170.95 16.9 L170.95 28.3 Q170.95 28.95 170.45 29.45 L169.3 29.9 Q168.65 29.9 168.2 29.45 167.7 28.95 167.7 28.3 L167.7 16.9 Q167.7 16.25 168.2 15.75" fill="#231f20" fill-rule="evenodd" stroke="none" class="line" />
      <path d="M169.55 26.75 Q170.25 26.85 170.6 27.4 171.0 27.9 170.9 28.55 L170.5 29.45 170.4 29.55 170.1 29.8 169.95 29.9 169.7 30.05 169.5 30.15 168.75 30.35 168.55 30.35 167.95 30.4 167.85 30.4 Q167.2 30.4 166.75 29.95 166.3 29.55 166.25 28.9 166.2 28.2 166.65 27.75 167.1 27.25 167.75 27.2 L168.25 27.15 Q168.8 26.65 169.55 26.75" fill="#231f20" fill-rule="evenodd" stroke="none" class="line" />
      <path d="M167.85 30.4 L153.6 30.4 Q152.95 30.4 152.45 29.95 152.0 29.5 152.0 28.8 152.0 28.15 152.45 27.65 152.95 27.2 153.6 27.2 L167.85 27.2 Q168.55 27.2 169.0 27.65 169.45 28.15 169.45 28.8 L169.0 29.95 167.85 30.4" fill="#231f20" fill-rule="evenodd" stroke="none" class="line" />
      <path d="M153.7 27.2 Q154.35 27.25 154.8 27.75 155.25 28.25 155.2 28.9 155.15 29.55 154.7 29.95 L153.6 30.4 152.65 30.35 151.95 30.15 151.45 29.9 151.3 29.8 151.15 29.65 151.05 29.6 Q150.65 29.25 150.55 28.65 150.45 28.0 150.8 27.45 151.2 26.85 151.85 26.75 152.65 26.65 153.2 27.15 L153.7 27.2" fill="#231f20" fill-rule="evenodd" stroke="none" class="line" />
      <path d="M150.95 15.75 Q151.45 15.25 152.1 15.25 152.75 15.25 153.25 15.75 153.7 16.2 153.7 16.9 L153.7 28.3 153.25 29.45 Q152.8 29.9 152.1 29.9 151.45 29.9 150.95 29.45 150.5 29.0 150.5 28.3 L150.5 16.9 Q150.5 16.2 150.95 15.75" fill="#231f20" fill-rule="evenodd" stroke="none" class="line" />
      <path d="M167.85 32.1 L153.6 32.1 Q152.95 32.1 152.45 31.6 152.0 31.15 152.0 30.5 152.0 29.85 152.45 29.35 152.95 28.9 153.6 28.9 L167.85 28.9 Q168.55 28.9 169.0 29.35 169.45 29.85 169.45 30.5 169.45 31.15 169.0 31.6 168.5 32.1 167.85 32.1" fill="#231f20" fill-rule="evenodd" stroke="none" class="line" />
      <path d="M167.7 28.3 Q167.7 27.65 168.2 27.15 168.65 26.7 169.3 26.7 170.0 26.7 170.45 27.15 170.95 27.65 170.95 28.3 L170.95 29.95 Q170.95 30.65 170.45 31.1 170.0 31.6 169.3 31.6 168.65 31.6 168.2 31.1 167.7 30.6 167.7 29.95 L167.7 28.3" fill="#231f20" fill-rule="evenodd" stroke="none" class="line" />
      <path d="M168.25 28.85 Q168.8 28.3 169.55 28.45 170.25 28.55 170.6 29.05 171.0 29.6 170.9 30.25 L170.9 30.35 170.55 31.1 170.45 31.2 170.0 31.55 169.85 31.65 169.55 31.8 169.35 31.85 169.1 31.95 169.0 31.95 168.7 32.0 168.6 32.05 168.2 32.05 167.9 32.1 167.85 32.1 Q167.2 32.1 166.75 31.65 166.25 31.15 166.25 30.5 166.2 29.85 166.65 29.4 167.15 28.9 167.8 28.9 L168.25 28.85" fill="#231f20" fill-rule="evenodd" stroke="none" class="line" />
      <path d="M152.1 31.6 Q151.45 31.6 150.95 31.1 150.5 30.65 150.5 29.95 L150.5 28.3 Q150.5 27.65 150.95 27.15 151.45 26.7 152.1 26.7 152.8 26.7 153.25 27.15 153.7 27.65 153.7 28.3 L153.7 29.95 153.25 31.1 Q152.75 31.6 152.1 31.6" fill="#231f20" fill-rule="evenodd" stroke="none" class="line" />
      <path d="M153.65 28.9 Q154.3 28.9 154.75 29.4 L155.2 30.5 Q155.2 31.15 154.7 31.65 L153.6 32.1 153.55 32.1 153.25 32.05 152.85 32.05 152.7 32.0 152.15 31.9 151.85 31.8 151.7 31.7 151.6 31.65 151.45 31.55 151.1 31.3 151.0 31.2 150.55 30.35 Q150.45 29.65 150.8 29.1 151.2 28.55 151.85 28.45 152.7 28.3 153.25 28.85 L153.65 28.9" fill="#231f20" fill-rule="evenodd" stroke="none" class="line" />
      <path d="M150.95 15.2 Q151.45 14.7 152.1 14.7 152.75 14.7 153.25 15.2 153.7 15.65 153.7 16.3 L153.7 16.9 Q153.7 17.55 153.25 18.0 152.75 18.5 152.1 18.5 151.45 18.5 150.95 18.0 150.5 17.55 150.5 16.9 L150.5 16.3 Q150.5 15.65 150.95 15.2" fill="#231f20" fill-rule="evenodd" stroke="none" class="line" />
      <path d="M169.3 14.7 Q169.95 14.7 170.45 15.2 170.95 15.65 170.95 16.3 L170.95 16.9 Q170.95 17.55 170.45 18.0 169.95 18.5 169.3 18.5 168.65 18.5 168.2 18.0 167.7 17.55 167.7 16.9 L167.7 16.3 Q167.7 15.65 168.2 15.2 168.65 14.7 169.3 14.7" fill="#231f20" fill-rule="evenodd" stroke="none" class="line" />
      <path d="M156.85 6.05 L153.65 16.8 Q153.3 17.95 152.1 17.95 L151.65 17.85 Q151.0 17.65 150.7 17.1 150.35 16.5 150.55 15.85 L153.8 5.15 Q154.0 4.5 154.6 4.2 L155.8 4.1 Q156.45 4.3 156.75 4.85 157.05 5.45 156.85 6.05" fill="#231f20" fill-rule="evenodd" stroke="none" class="line" />
      <path d="M167.65 5.15 L170.85 15.85 Q171.05 16.5 170.75 17.1 170.45 17.65 169.8 17.85 L169.3 17.95 Q168.15 17.95 167.8 16.8 L164.55 6.05 Q164.35 5.45 164.7 4.85 165.0 4.3 165.65 4.1 L166.9 4.2 Q167.45 4.5 167.65 5.15" fill="#231f20" fill-rule="evenodd" stroke="none" class="line" />
      <path d="M163.3 9.85 Q162.25 10.9 160.7 10.9 159.2 10.9 158.15 9.85 157.05 8.75 157.05 7.25 157.05 5.7 158.15 4.65 159.2 3.55 160.7 3.55 162.25 3.55 163.3 4.65 164.4 5.7 164.4 7.25 164.4 8.75 163.3 9.85 M160.7 6.75 Q160.25 6.75 160.25 7.25 160.25 7.7 160.7 7.7 L161.2 7.25 Q161.2 6.75 160.7 6.75" fill="#231f20" fill-rule="evenodd" stroke="none" class="line" />
      <path d="M162.65 3.7 Q161.2 2.85 159.55 3.35 157.5 4.0 156.85 6.1 156.5 7.2 155.3 7.2 L154.85 7.15 Q154.2 6.95 153.9 6.4 153.6 5.8 153.8 5.15 154.35 3.4 155.6 2.1 156.9 0.85 158.65 0.3 161.55 -0.55 164.2 0.85 166.8 2.3 167.65 5.15 167.85 5.8 167.5 6.4 L166.55 7.15 165.35 7.0 Q164.75 6.7 164.55 6.05 164.05 4.45 162.65 3.7" fill="#231f20" fill-rule="evenodd" stroke="none" class="line" />
      <path d="M3.2 208.75 L3.2 220.15 2.75 221.3 Q2.3 221.75 1.6 221.75 0.95 221.75 0.45 221.3 0.0 220.85 0.0 220.15 L0.0 208.75 Q0.0 208.1 0.45 207.6 0.95 207.15 1.6 207.15 2.3 207.15 2.75 207.6 3.2 208.1 3.2 208.75" fill="#231f20" fill-rule="evenodd" stroke="none" class="line" />
      <path d="M4.1 207.05 L4.65 208.15 Q4.7 208.85 4.25 209.3 3.8 209.8 3.15 209.85 L2.7 209.9 Q2.25 210.35 1.6 210.35 L0.95 210.25 Q0.35 210.0 0.1 209.35 -0.15 208.75 0.1 208.15 L0.35 207.65 0.45 207.6 0.9 207.2 1.05 207.1 1.6 206.85 2.05 206.75 2.95 206.65 Q3.6 206.6 4.1 207.05" fill="#231f20" fill-rule="evenodd" stroke="none" class="line" />
      <path d="M17.35 209.85 L3.05 209.85 Q2.4 209.85 1.9 209.4 1.45 208.95 1.45 208.25 1.45 207.6 1.9 207.1 2.4 206.65 3.05 206.65 L17.35 206.65 Q18.05 206.65 18.5 207.1 18.95 207.6 18.95 208.25 L18.5 209.4 Q18.05 209.85 17.35 209.85" fill="#231f20" fill-rule="evenodd" stroke="none" class="line" />
      <path d="M18.95 206.9 L19.5 207.15 19.65 207.25 19.95 207.55 20.35 208.25 Q20.5 208.9 20.15 209.5 19.85 210.1 19.2 210.25 L18.75 210.3 Q18.2 210.3 17.7 209.9 L17.25 209.85 Q16.6 209.8 16.15 209.3 15.7 208.85 15.75 208.15 15.8 207.5 16.3 207.1 16.75 206.65 17.45 206.65 L17.7 206.65 17.8 206.7 18.35 206.75 18.95 206.9" fill="#231f20" fill-rule="evenodd" stroke="none" class="line" />
      <path d="M20.4 220.15 Q20.4 220.85 19.95 221.3 L18.8 221.75 Q18.15 221.75 17.7 221.3 17.2 220.8 17.2 220.15 L17.2 208.75 Q17.2 208.1 17.7 207.6 18.15 207.15 18.8 207.15 19.5 207.15 19.95 207.6 20.4 208.1 20.4 208.75 L20.4 220.15" fill="#231f20" fill-rule="evenodd" stroke="none" class="line" />
      <path d="M20.4 208.75 Q20.4 209.45 19.95 209.9 L18.8 210.35 Q18.15 210.35 17.7 209.9 17.2 209.4 17.2 208.75 L17.2 207.1 Q17.2 206.45 17.7 205.95 18.15 205.5 18.8 205.5 19.5 205.5 19.95 205.95 20.4 206.45 20.4 207.1 L20.4 208.75" fill="#231f20" fill-rule="evenodd" stroke="none" class="line" />
      <path d="M20.4 206.75 Q20.5 207.45 20.15 208.0 L19.15 208.65 18.8 208.7 Q18.15 208.7 17.65 208.2 L17.25 208.2 Q16.6 208.15 16.15 207.65 15.7 207.2 15.75 206.5 15.8 205.85 16.3 205.4 16.75 204.95 17.45 205.0 L18.0 205.0 18.7 205.15 18.95 205.25 19.15 205.3 19.4 205.4 19.5 205.5 19.95 205.85 20.0 205.95 20.35 206.65 20.4 206.75" fill="#231f20" fill-rule="evenodd" stroke="none" class="line" />
      <path d="M17.35 208.2 L3.05 208.2 Q2.4 208.2 1.9 207.7 1.45 207.25 1.45 206.6 1.45 205.95 1.9 205.45 2.4 205.0 3.05 205.0 L17.35 205.0 Q18.05 205.0 18.5 205.45 18.95 205.95 18.95 206.6 18.95 207.25 18.5 207.7 18.0 208.2 17.35 208.2" fill="#231f20" fill-rule="evenodd" stroke="none" class="line" />
      <path d="M3.2 207.1 L3.2 208.75 2.75 209.9 Q2.3 210.35 1.6 210.35 0.95 210.35 0.45 209.9 0.0 209.45 0.0 208.75 L0.0 207.1 Q0.0 206.45 0.45 205.95 0.95 205.5 1.6 205.5 2.3 205.5 2.75 205.95 3.2 206.45 3.2 207.1" fill="#231f20" fill-rule="evenodd" stroke="none" class="line" />
      <path d="M4.65 206.5 Q4.7 207.15 4.25 207.65 3.8 208.15 3.15 208.2 L2.75 208.2 Q2.25 208.7 1.6 208.7 L1.05 208.6 Q0.4 208.4 0.15 207.8 -0.1 207.2 0.1 206.55 L0.1 206.45 0.35 206.0 1.0 205.45 1.7 205.15 2.4 205.0 2.95 205.0 Q3.6 204.95 4.1 205.4 L4.65 206.5" fill="#231f20" fill-rule="evenodd" stroke="none" class="line" />
      <path d="M1.6 218.55 Q2.25 218.55 2.75 219.05 3.2 219.5 3.2 220.15 L3.2 220.75 Q3.2 221.4 2.75 221.85 2.25 222.35 1.6 222.35 0.95 222.35 0.45 221.85 0.0 221.4 0.0 220.75 L0.0 220.15 Q0.0 219.5 0.45 219.05 0.95 218.55 1.6 218.55" fill="#231f20" fill-rule="evenodd" stroke="none" class="line" />
      <path d="M20.4 220.75 Q20.4 221.4 19.95 221.85 19.45 222.35 18.8 222.35 18.15 222.35 17.7 221.85 17.2 221.4 17.2 220.75 L17.2 220.15 Q17.2 219.5 17.7 219.05 18.15 218.55 18.8 218.55 19.45 218.55 19.95 219.05 20.4 219.5 20.4 220.15 L20.4 220.75" fill="#231f20" fill-rule="evenodd" stroke="none" class="line" />
      <path d="M18.05 219.3 L19.25 219.2 Q19.9 219.4 20.2 220.0 20.55 220.55 20.35 221.2 L17.15 231.9 Q16.8 233.05 15.6 233.05 L15.15 233.0 Q14.5 232.75 14.2 232.2 13.85 231.65 14.05 231.0 L17.3 220.25 Q17.5 219.6 18.05 219.3" fill="#231f20" fill-rule="evenodd" stroke="none" class="line" />
      <path d="M15.35 234.95 Q14.05 236.25 12.3 236.75 L10.2 237.05 Q7.85 237.05 5.9 235.65 3.95 234.25 3.25 231.9 3.05 231.25 3.35 230.7 3.65 230.1 4.3 229.9 L5.55 230.05 Q6.1 230.35 6.3 231.0 6.85 232.6 8.3 233.4 9.75 234.2 11.35 233.7 13.5 233.05 14.05 231.0 14.25 230.35 14.85 230.05 L16.05 229.9 Q16.7 230.1 17.0 230.7 17.35 231.25 17.15 231.9 16.65 233.65 15.35 234.95" fill="#231f20" fill-rule="evenodd" stroke="none" class="line" />
      <path d="M2.35 219.35 L3.15 220.25 6.3 231.0 Q6.5 231.65 6.2 232.25 L5.25 233.0 4.8 233.05 Q3.6 233.05 3.25 231.9 L0.05 221.2 Q-0.15 220.55 0.2 220.0 0.5 219.4 1.15 219.2 L2.35 219.35" fill="#231f20" fill-rule="evenodd" stroke="none" class="line" />
      <path d="M10.2 229.35 Q9.7 229.35 9.7 229.8 9.7 230.3 10.2 230.3 10.7 230.3 10.7 229.8 10.7 229.35 10.2 229.35 M10.2 233.5 Q8.65 233.5 7.6 232.4 6.5 231.35 6.5 229.8 6.5 228.3 7.6 227.25 8.65 226.15 10.2 226.15 11.75 226.15 12.8 227.25 13.9 228.3 13.9 229.8 13.9 231.35 12.8 232.4 11.75 233.5 10.2 233.5" fill="#231f20" fill-rule="evenodd" stroke="none" class="line" />
      <path d="M17.7 15.75 Q18.15 15.25 18.8 15.25 19.45 15.25 19.95 15.75 20.4 16.2 20.4 16.9 L20.4 28.3 Q20.4 29.0 19.95 29.45 L18.8 29.9 Q18.15 29.9 17.7 29.45 17.2 28.95 17.2 28.3 L17.2 16.9 Q17.2 16.25 17.7 15.75" fill="#231f20" fill-rule="evenodd" stroke="none" class="line" />
      <path d="M20.2 27.5 Q20.55 28.05 20.35 28.7 L20.0 29.45 19.65 29.8 19.5 29.9 19.1 30.1 18.2 30.35 17.45 30.4 17.35 30.4 Q16.7 30.4 16.25 29.95 15.8 29.55 15.75 28.9 15.7 28.2 16.15 27.75 16.6 27.25 17.25 27.2 L17.75 27.15 Q18.4 26.6 19.2 26.8 L20.2 27.5" fill="#231f20" fill-rule="evenodd" stroke="none" class="line" />
      <path d="M17.35 30.4 L3.05 30.4 Q2.4 30.4 1.9 29.95 1.45 29.5 1.45 28.8 1.45 28.15 1.9 27.65 2.4 27.2 3.05 27.2 L17.35 27.2 Q18.05 27.2 18.5 27.65 18.95 28.15 18.95 28.8 L18.5 29.95 Q18.05 30.4 17.35 30.4" fill="#231f20" fill-rule="evenodd" stroke="none" class="line" />
      <path d="M4.25 27.75 Q4.7 28.25 4.65 28.9 4.6 29.55 4.15 29.95 3.7 30.4 3.05 30.4 L2.95 30.4 2.35 30.35 2.15 30.35 1.65 30.2 1.4 30.15 1.2 30.05 1.05 29.95 0.85 29.85 0.4 29.45 0.1 28.9 Q-0.15 28.3 0.1 27.7 0.35 27.05 0.95 26.8 2.0 26.4 2.75 27.2 L3.15 27.2 Q3.8 27.25 4.25 27.75" fill="#231f20" fill-rule="evenodd" stroke="none" class="line" />
      <path d="M0.45 15.75 Q0.95 15.25 1.6 15.25 2.25 15.25 2.75 15.75 3.2 16.2 3.2 16.9 L3.2 28.3 2.75 29.45 Q2.3 29.9 1.6 29.9 0.95 29.9 0.45 29.45 0.0 29.0 0.0 28.3 L0.0 16.9 Q0.0 16.2 0.45 15.75" fill="#231f20" fill-rule="evenodd" stroke="none" class="line" />
      <path d="M18.8 31.6 Q18.15 31.6 17.7 31.1 17.2 30.6 17.2 29.95 L17.2 28.3 Q17.2 27.65 17.7 27.15 18.15 26.7 18.8 26.7 19.5 26.7 19.95 27.15 20.4 27.65 20.4 28.3 L20.4 29.95 Q20.4 30.65 19.95 31.1 19.45 31.6 18.8 31.6" fill="#231f20" fill-rule="evenodd" stroke="none" class="line" />
      <path d="M16.15 29.4 Q16.65 28.9 17.3 28.9 L17.75 28.85 Q18.4 28.3 19.2 28.45 19.85 28.65 20.2 29.2 20.55 29.75 20.35 30.35 L20.35 30.45 20.0 31.1 19.95 31.2 19.5 31.55 19.4 31.65 19.15 31.75 18.8 31.85 18.6 31.95 18.45 31.95 17.8 32.05 17.65 32.05 17.4 32.1 17.35 32.1 Q16.7 32.1 16.2 31.65 15.75 31.2 15.75 30.55 15.7 29.9 16.15 29.4" fill="#231f20" fill-rule="evenodd" stroke="none" class="line" />
      <path d="M0.0 28.3 Q0.0 27.65 0.45 27.15 0.95 26.7 1.6 26.7 2.3 26.7 2.75 27.15 3.2 27.65 3.2 28.3 L3.2 29.95 2.75 31.1 Q2.25 31.6 1.6 31.6 0.95 31.6 0.45 31.1 0.0 30.65 0.0 29.95 L0.0 28.3" fill="#231f20" fill-rule="evenodd" stroke="none" class="line" />
      <path d="M4.65 30.55 Q4.6 31.2 4.15 31.65 3.7 32.1 3.05 32.1 L3.0 32.1 2.75 32.05 2.35 32.05 2.2 32.0 1.95 31.95 1.8 31.95 1.0 31.6 0.35 31.05 0.1 30.6 Q-0.15 30.0 0.1 29.4 0.35 28.75 0.95 28.5 2.0 28.1 2.75 28.85 L3.1 28.9 Q3.8 28.9 4.25 29.4 4.7 29.9 4.65 30.55" fill="#231f20" fill-rule="evenodd" stroke="none" class="line" />
      <path d="M17.35 32.1 L3.05 32.1 Q2.4 32.1 1.9 31.6 1.45 31.15 1.45 30.5 1.45 29.85 1.9 29.35 2.4 28.9 3.05 28.9 L17.35 28.9 Q18.05 28.9 18.5 29.35 18.95 29.85 18.95 30.5 18.95 31.15 18.5 31.6 18.0 32.1 17.35 32.1" fill="#231f20" fill-rule="evenodd" stroke="none" class="line" />
      <path d="M20.4 16.9 Q20.4 17.55 19.95 18.0 19.45 18.5 18.8 18.5 18.15 18.5 17.7 18.0 17.2 17.55 17.2 16.9 L17.2 16.3 Q17.2 15.65 17.7 15.2 18.15 14.7 18.8 14.7 19.45 14.7 19.95 15.2 20.4 15.65 20.4 16.3 L20.4 16.9" fill="#231f20" fill-rule="evenodd" stroke="none" class="line" />
      <path d="M1.6 14.7 Q2.25 14.7 2.75 15.2 3.2 15.65 3.2 16.3 L3.2 16.9 Q3.2 17.55 2.75 18.0 2.25 18.5 1.6 18.5 0.95 18.5 0.45 18.0 0.0 17.55 0.0 16.9 L0.0 16.3 Q0.0 15.65 0.45 15.2 0.95 14.7 1.6 14.7" fill="#231f20" fill-rule="evenodd" stroke="none" class="line" />
      <path d="M6.3 6.05 L3.15 16.8 Q2.75 17.95 1.6 17.95 L1.15 17.85 Q0.5 17.65 0.2 17.1 -0.15 16.5 0.05 15.85 L3.25 5.15 Q3.45 4.5 4.05 4.2 L5.25 4.1 Q5.9 4.3 6.2 4.85 6.5 5.4 6.3 6.05" fill="#231f20" fill-rule="evenodd" stroke="none" class="line" />
      <path d="M18.8 17.95 Q17.65 17.95 17.3 16.8 L14.05 6.05 Q13.85 5.45 14.2 4.85 14.5 4.3 15.15 4.1 L16.4 4.2 Q16.95 4.5 17.15 5.15 L20.35 15.85 Q20.55 16.5 20.2 17.1 19.9 17.65 19.25 17.85 L18.8 17.95" fill="#231f20" fill-rule="evenodd" stroke="none" class="line" />
      <path d="M10.2 6.75 Q9.7 6.75 9.7 7.25 9.7 7.7 10.2 7.7 10.7 7.7 10.7 7.25 10.7 6.75 10.2 6.75 M10.2 10.9 Q8.65 10.9 7.6 9.85 6.5 8.75 6.5 7.25 6.5 5.7 7.6 4.65 8.65 3.55 10.2 3.55 11.75 3.55 12.8 4.65 13.9 5.7 13.9 7.25 13.9 8.75 12.8 9.85 11.75 10.9 10.2 10.9" fill="#231f20" fill-rule="evenodd" stroke="none" class="line" />
      <path d="M15.6 7.2 Q14.4 7.2 14.05 6.05 13.6 4.5 12.15 3.7 10.65 2.85 9.05 3.35 6.95 3.95 6.3 6.1 L5.55 7.0 4.3 7.15 Q3.65 6.95 3.35 6.4 3.05 5.8 3.25 5.15 3.8 3.4 5.05 2.1 6.35 0.85 8.1 0.3 11.0 -0.55 13.65 0.85 16.3 2.35 17.15 5.15 17.35 5.8 17.0 6.4 16.7 6.95 16.05 7.15 L15.6 7.2" fill="#231f20" fill-rule="evenodd" stroke="none" class="line" />
      <path d="M170.95 207.1 L170.95 208.75 Q170.95 209.4 170.45 209.9 L169.3 210.35 Q168.65 210.35 168.2 209.9 167.7 209.4 167.7 208.75 L167.7 207.1 Q167.7 206.45 168.2 205.95 168.65 205.5 169.3 205.5 170.0 205.5 170.45 205.95 170.95 206.45 170.95 207.1" fill="#231f20" fill-rule="evenodd" stroke="none" class="line" />
      <path d="M166.25 208.15 Q166.3 207.5 166.75 207.1 167.25 206.65 167.95 206.65 L168.9 206.75 169.35 206.85 169.55 206.95 169.75 207.0 170.35 207.45 170.45 207.55 170.9 208.4 Q171.0 209.05 170.6 209.6 L169.55 210.3 169.3 210.3 Q168.7 210.3 168.2 209.9 L167.75 209.85 Q167.1 209.8 166.65 209.3 166.2 208.85 166.25 208.15" fill="#231f20" fill-rule="evenodd" stroke="none" class="line" />
      <path d="M166.25 206.5 Q166.3 205.8 166.75 205.4 167.25 204.95 167.95 205.0 L168.5 205.0 169.25 205.15 169.55 205.25 169.85 205.4 170.0 205.5 170.45 205.85 170.55 205.95 170.9 206.75 170.9 206.9 Q171.0 207.55 170.6 208.05 170.2 208.6 169.55 208.7 L169.3 208.7 Q168.65 208.7 168.15 208.2 L167.75 208.2 Q167.1 208.15 166.65 207.65 166.2 207.2 166.25 206.5" fill="#231f20" fill-rule="evenodd" stroke="none" class="line" />
      <path d="M153.7 208.75 L153.7 220.15 153.25 221.3 Q152.8 221.75 152.1 221.75 151.45 221.75 150.95 221.3 150.5 220.85 150.5 220.15 L150.5 208.75 Q150.5 208.1 150.95 207.6 151.45 207.15 152.1 207.15 152.8 207.15 153.25 207.6 153.7 208.1 153.7 208.75" fill="#231f20" fill-rule="evenodd" stroke="none" class="line" />
      <path d="M152.55 206.75 L153.1 206.7 153.2 206.65 153.5 206.65 Q154.2 206.6 154.7 207.05 155.15 207.5 155.2 208.15 155.25 208.8 154.8 209.3 154.35 209.8 153.7 209.85 L153.15 209.9 Q152.65 210.3 152.1 210.3 L151.85 210.3 150.8 209.65 Q150.4 209.15 150.5 208.5 150.7 207.7 151.1 207.45 L151.2 207.35 151.35 207.25 151.45 207.15 151.7 207.0 152.1 206.85 152.55 206.75" fill="#231f20" fill-rule="evenodd" stroke="none" class="line" />
      <path d="M153.6 206.65 L167.85 206.65 Q168.55 206.65 169.0 207.1 169.45 207.6 169.45 208.25 L169.0 209.4 167.85 209.85 153.6 209.85 Q152.95 209.85 152.45 209.4 152.0 208.95 152.0 208.25 152.0 207.6 152.45 207.1 152.95 206.65 153.6 206.65" fill="#231f20" fill-rule="evenodd" stroke="none" class="line" />
      <path d="M170.95 208.75 L170.95 220.15 Q170.95 220.8 170.45 221.3 L169.3 221.75 Q168.65 221.75 168.2 221.3 167.7 220.8 167.7 220.15 L167.7 208.75 Q167.7 208.1 168.2 207.6 168.65 207.15 169.3 207.15 170.0 207.15 170.45 207.6 170.95 208.1 170.95 208.75" fill="#231f20" fill-rule="evenodd" stroke="none" class="line" />
      <path d="M153.6 205.0 L167.85 205.0 Q168.55 205.0 169.0 205.45 169.45 205.95 169.45 206.6 169.45 207.25 169.0 207.7 168.5 208.2 167.85 208.2 L153.6 208.2 Q152.95 208.2 152.45 207.7 152.0 207.25 152.0 206.6 152.0 205.95 152.45 205.45 152.95 205.0 153.6 205.0" fill="#231f20" fill-rule="evenodd" stroke="none" class="line" />
      <path d="M152.1 210.35 Q151.45 210.35 150.95 209.9 150.5 209.45 150.5 208.75 L150.5 207.1 Q150.5 206.45 150.95 205.95 151.45 205.5 152.1 205.5 152.8 205.5 153.25 205.95 153.7 206.45 153.7 207.1 L153.7 208.75 153.25 209.9 Q152.8 210.35 152.1 210.35" fill="#231f20" fill-rule="evenodd" stroke="none" class="line" />
      <path d="M155.2 206.5 Q155.25 207.15 154.8 207.65 154.35 208.15 153.7 208.2 L153.25 208.2 Q152.75 208.7 152.1 208.7 L151.85 208.7 150.8 208.05 Q150.45 207.5 150.5 206.85 L150.55 206.75 Q150.65 206.25 151.0 205.85 L151.1 205.75 151.45 205.5 151.6 205.4 151.9 205.25 152.6 205.05 152.9 205.0 153.5 205.0 Q154.2 204.95 154.7 205.4 155.15 205.8 155.2 206.5" fill="#231f20" fill-rule="evenodd" stroke="none" class="line" />
      <path d="M169.3 218.55 Q169.95 218.55 170.45 219.05 170.95 219.5 170.95 220.15 L170.95 220.75 Q170.95 221.4 170.45 221.85 169.95 222.35 169.3 222.35 168.65 222.35 168.2 221.85 167.7 221.4 167.7 220.75 L167.7 220.15 Q167.7 219.5 168.2 219.05 168.65 218.55 169.3 218.55" fill="#231f20" fill-rule="evenodd" stroke="none" class="line" />
      <path d="M150.95 219.05 Q151.45 218.55 152.1 218.55 152.75 218.55 153.25 219.05 153.7 219.5 153.7 220.15 L153.7 220.75 Q153.7 221.4 153.25 221.85 152.75 222.35 152.1 222.35 151.45 222.35 150.95 221.85 150.5 221.4 150.5 220.75 L150.5 220.15 Q150.5 219.5 150.95 219.05" fill="#231f20" fill-rule="evenodd" stroke="none" class="line" />
      <path d="M168.6 219.3 L169.8 219.2 170.75 220.0 Q171.05 220.55 170.85 221.2 L167.65 231.9 Q167.3 233.05 166.1 233.05 L165.65 233.0 Q165.0 232.75 164.7 232.2 164.35 231.65 164.55 231.0 L167.8 220.25 Q168.0 219.6 168.6 219.3" fill="#231f20" fill-rule="evenodd" stroke="none" class="line" />
      <path d="M150.7 220.0 Q151.0 219.4 151.65 219.2 L152.9 219.3 Q153.45 219.6 153.65 220.25 L156.85 231.0 Q157.05 231.65 156.75 232.2 156.45 232.8 155.8 233.0 L155.3 233.05 Q154.15 233.05 153.8 231.9 L150.55 221.2 Q150.35 220.55 150.7 220.0" fill="#231f20" fill-rule="evenodd" stroke="none" class="line" />
      <path d="M161.9 233.7 Q164.0 233.05 164.55 231.0 164.8 230.35 165.35 230.05 L166.55 229.9 Q167.2 230.1 167.5 230.7 167.85 231.25 167.65 231.9 167.15 233.65 165.85 234.95 164.55 236.25 162.8 236.75 L160.7 237.05 Q158.95 237.05 157.25 236.2 154.65 234.85 153.8 231.9 153.6 231.25 153.9 230.7 154.2 230.1 154.85 229.9 L156.1 230.05 Q156.65 230.35 156.85 231.0 157.3 232.55 158.8 233.35 160.25 234.2 161.9 233.7" fill="#231f20" fill-rule="evenodd" stroke="none" class="line" />
      <path d="M160.7 229.35 Q160.25 229.35 160.25 229.8 160.25 230.3 160.7 230.3 161.2 230.3 161.2 229.8 161.2 229.35 160.7 229.35 M160.7 226.15 Q162.25 226.15 163.3 227.25 164.4 228.3 164.4 229.8 164.4 231.35 163.3 232.4 162.25 233.5 160.7 233.5 159.2 233.5 158.15 232.4 157.05 231.35 157.05 229.8 157.05 228.3 158.15 227.25 159.2 226.15 160.7 226.15" fill="#231f20" fill-rule="evenodd" stroke="none" class="line" />
      <path d="M44.4 114.4 Q42.7 112.7 40.3 112.7 37.85 112.7 36.2 114.4 34.5 116.1 34.5 118.5 34.5 120.9 36.2 122.6 37.85 124.3 40.3 124.3 42.7 124.3 44.4 122.6 46.1 120.9 46.1 118.5 46.1 116.1 44.4 114.4 M46.65 124.9 Q44.0 127.55 40.3 127.55 36.55 127.55 33.95 124.9 31.3 122.25 31.3 118.5 31.3 114.8 33.95 112.15 36.55 109.5 40.3 109.5 44.0 109.5 46.65 112.15 49.3 114.8 49.3 118.5 49.3 122.25 46.65 124.9" fill="#231f20" fill-rule="evenodd" stroke="none" class="line" />
      <path d="M42.25 120.5 Q41.45 121.3 40.3 121.3 39.15 121.3 38.3 120.5 37.5 119.65 37.5 118.5 37.5 117.35 38.3 116.5 39.15 115.7 40.3 115.7 41.45 115.7 42.25 116.5 43.1 117.35 43.1 118.5 43.1 119.65 42.25 120.5 M40.3 118.95 Q40.7 118.95 40.7 118.5 40.7 118.1 40.3 118.1 39.9 118.1 39.9 118.5 39.9 118.95 40.3 118.95" fill="#231f20" fill-rule="evenodd" stroke="none" class="line" />
      <path d="M130.55 118.1 Q130.15 118.1 130.15 118.5 130.15 118.95 130.55 118.95 L131.0 118.5 Q131.0 118.1 130.55 118.1 M130.55 115.7 Q131.7 115.7 132.55 116.5 133.35 117.35 133.35 118.5 133.35 119.65 132.55 120.5 131.7 121.3 130.55 121.3 129.4 121.3 128.6 120.5 127.8 119.65 127.8 118.5 127.8 117.35 128.6 116.5 129.4 115.7 130.55 115.7" fill="#231f20" fill-rule="evenodd" stroke="none" class="line" />
      <path d="M124.2 112.15 Q126.85 109.5 130.55 109.5 134.3 109.5 136.95 112.15 139.6 114.8 139.6 118.5 139.6 122.25 136.95 124.9 134.3 127.55 130.55 127.55 126.85 127.55 124.2 124.9 121.55 122.25 121.55 118.5 121.55 114.8 124.2 112.15 M126.45 122.6 Q128.15 124.3 130.55 124.3 133.0 124.3 134.7 122.6 136.4 120.9 136.4 118.5 136.4 116.1 134.7 114.4 133.0 112.7 130.55 112.7 128.15 112.7 126.45 114.4 124.75 116.1 124.75 118.5 124.75 120.9 126.45 122.6" fill="#231f20" fill-rule="evenodd" stroke="none" class="line" />
      <path d="M124.85 112.8 Q122.5 115.15 122.5 118.5 122.5 121.85 124.85 124.2 127.2 126.6 130.55 126.6 133.9 126.6 136.3 124.2 138.7 121.85 138.7 118.5 138.7 115.15 136.3 112.8 133.9 110.4 130.55 110.4 127.2 110.4 124.85 112.8 M130.55 107.2 Q135.25 107.2 138.55 110.5 141.9 113.8 141.9 118.5 141.9 123.2 138.55 126.5 135.25 129.8 130.55 129.8 125.9 129.8 122.6 126.5 119.25 123.2 119.25 118.5 119.25 113.8 122.6 110.5 125.9 107.2 130.55 107.2" fill="#231f20" fill-rule="evenodd" stroke="none" class="line" />
      <path d="M125.05 113.0 Q122.75 115.3 122.75 118.5 122.75 121.75 125.05 124.0 127.35 126.3 130.55 126.3 133.8 126.3 136.1 124.0 138.4 121.75 138.4 118.5 138.4 115.25 136.1 113.0 133.8 110.7 130.55 110.7 127.35 110.7 125.05 113.0 M130.55 107.5 Q135.1 107.5 138.35 110.75 141.6 113.95 141.6 118.5 141.6 123.05 138.35 126.25 135.1 129.5 130.55 129.5 126.0 129.5 122.8 126.25 119.55 123.05 119.55 118.5 119.55 113.95 122.8 110.75 126.0 107.5 130.55 107.5" fill="#231f20" fill-rule="evenodd" stroke="none" class="line" />
      <path d="M126.4 122.7 Q128.1 124.45 130.55 124.45 133.05 124.45 134.8 122.7 136.55 120.95 136.55 118.5 136.55 116.05 134.8 114.3 133.05 112.55 130.55 112.55 128.1 112.55 126.4 114.3 124.65 116.05 124.65 118.5 124.65 120.95 126.4 122.7 M139.75 118.5 Q139.75 122.3 137.05 125.0 134.35 127.7 130.55 127.7 126.8 127.7 124.15 125.0 121.45 122.3 121.45 118.5 121.45 114.7 124.15 112.05 126.8 109.35 130.55 109.35 134.35 109.35 137.05 112.05 139.75 114.7 139.75 118.5" fill="#231f20" fill-rule="evenodd" stroke="none" class="line" />
      <path d="M46.0 112.8 Q43.65 110.4 40.3 110.4 36.95 110.4 34.6 112.8 32.25 115.15 32.25 118.5 32.25 121.85 34.6 124.2 36.95 126.6 40.3 126.6 43.65 126.6 46.0 124.2 48.4 121.85 48.4 118.5 48.4 115.15 46.0 112.8 M48.3 126.5 Q44.95 129.8 40.3 129.8 35.65 129.8 32.35 126.5 29.0 123.2 29.0 118.5 29.0 113.8 32.35 110.5 35.65 107.2 40.3 107.2 44.95 107.2 48.3 110.5 51.6 113.8 51.6 118.5 51.6 123.2 48.3 126.5" fill="#231f20" fill-rule="evenodd" stroke="none" class="line" />
      <path d="M45.8 113.0 Q43.55 110.7 40.3 110.7 37.1 110.7 34.8 113.0 32.55 115.25 32.55 118.5 32.55 121.75 34.8 124.0 37.1 126.3 40.3 126.3 43.55 126.3 45.8 124.0 48.1 121.75 48.1 118.5 48.1 115.3 45.8 113.0 M48.05 126.25 Q44.85 129.5 40.3 129.5 35.75 129.5 32.55 126.25 29.35 123.05 29.35 118.5 29.35 113.95 32.55 110.75 35.75 107.5 40.3 107.5 44.85 107.5 48.05 110.75 51.3 113.95 51.3 118.5 51.3 123.05 48.05 126.25" fill="#231f20" fill-rule="evenodd" stroke="none" class="line" />
      <path d="M44.5 114.3 Q42.8 112.55 40.3 112.55 37.85 112.55 36.1 114.3 34.35 116.05 34.35 118.5 34.35 121.0 36.1 122.7 37.85 124.45 40.3 124.45 42.8 124.45 44.5 122.7 46.25 121.0 46.25 118.5 46.25 116.05 44.5 114.3 M46.8 125.0 Q44.1 127.7 40.3 127.7 36.5 127.7 33.8 125.0 31.15 122.3 31.15 118.5 31.15 114.7 33.8 112.05 36.5 109.35 40.3 109.35 44.1 109.35 46.8 112.05 49.5 114.7 49.5 118.5 49.5 122.3 46.8 125.0" fill="#231f20" fill-rule="evenodd" stroke="none" class="line" />
      <path d="M154.9 130.4 L154.9 206.6 Q154.9 207.3 154.45 207.75 L153.3 208.2 Q152.65 208.2 152.15 207.75 151.7 207.3 151.7 206.6 L151.7 130.4 Q151.7 129.75 152.15 129.25 152.65 128.8 153.3 128.8 154.0 128.8 154.45 129.25 154.9 129.75 154.9 130.4" fill="#231f20" fill-rule="evenodd" stroke="none" class="line" />
      <path d="M154.9 30.45 L154.9 106.65 Q154.9 107.3 154.45 107.75 153.95 108.25 153.3 108.25 152.65 108.25 152.15 107.75 151.7 107.3 151.7 106.65 L151.7 30.45 Q151.7 29.8 152.15 29.35 152.65 28.85 153.3 28.85 153.95 28.85 154.45 29.35 154.9 29.8 154.9 30.45" fill="#231f20" fill-rule="evenodd" stroke="none" class="line" />
      <path d="M169.75 30.45 L169.75 206.6 Q169.75 207.25 169.25 207.75 168.8 208.2 168.15 208.2 167.5 208.2 167.0 207.75 166.55 207.3 166.55 206.6 L166.55 30.45 Q166.55 29.8 167.0 29.35 167.5 28.85 168.15 28.85 168.8 28.85 169.25 29.35 169.75 29.8 169.75 30.45" fill="#231f20" fill-rule="evenodd" stroke="none" class="line" />
      <path d="M4.35 30.45 L4.35 206.6 Q4.35 207.3 3.9 207.75 L2.75 208.2 1.65 207.75 Q1.15 207.25 1.15 206.6 L1.15 30.45 Q1.15 29.8 1.65 29.35 2.1 28.85 2.75 28.85 3.4 28.85 3.9 29.35 4.35 29.8 4.35 30.45" fill="#231f20" fill-rule="evenodd" stroke="none" class="line" />
      <path d="M19.25 30.45 L19.25 106.65 Q19.25 107.3 18.75 107.75 18.3 108.25 17.65 108.25 17.0 108.25 16.5 107.75 16.05 107.3 16.05 106.65 L16.05 30.45 Q16.05 29.8 16.5 29.35 17.0 28.85 17.65 28.85 18.3 28.85 18.75 29.35 19.25 29.8 19.25 30.45" fill="#231f20" fill-rule="evenodd" stroke="none" class="line" />
      <path d="M19.25 130.4 L19.25 206.6 Q19.25 207.25 18.75 207.75 18.3 208.2 17.65 208.2 17.0 208.2 16.5 207.75 16.05 207.3 16.05 206.6 L16.05 130.4 Q16.05 129.75 16.5 129.25 17.0 128.8 17.65 128.8 18.3 128.8 18.75 129.25 19.25 129.75 19.25 130.4" fill="#231f20" fill-rule="evenodd" stroke="none" class="line" />
      <path d="M16.5 107.3 Q17.0 106.85 17.65 106.85 18.3 106.85 18.75 107.3 19.25 107.8 19.25 108.45 L19.25 128.6 Q19.25 129.25 18.75 129.7 18.3 130.2 17.65 130.2 17.0 130.2 16.5 129.7 16.05 129.25 16.05 128.6 L16.05 108.45 Q16.05 107.8 16.5 107.3" fill="#231f20" fill-rule="evenodd" stroke="none" class="line" />
      <path d="M152.15 107.3 Q152.65 106.85 153.3 106.85 154.0 106.85 154.45 107.3 154.9 107.8 154.9 108.45 L154.9 128.6 Q154.9 129.25 154.45 129.7 153.95 130.2 153.3 130.2 152.65 130.2 152.15 129.7 151.7 129.25 151.7 128.6 L151.7 108.45 Q151.7 107.8 152.15 107.3" fill="#231f20" fill-rule="evenodd" stroke="none" class="line" />
      <path d="M59.9 132.0 L17.65 132.0 Q17.0 132.0 16.5 131.55 16.05 131.1 16.05 130.4 16.05 129.75 16.5 129.25 17.0 128.8 17.65 128.8 L59.9 128.8 Q60.6 128.8 61.05 129.25 61.5 129.75 61.5 130.4 61.5 131.1 61.05 131.55 60.6 132.0 59.9 132.0" fill="#231f20" fill-rule="evenodd" stroke="none" class="line" />
      <path d="M153.3 132.0 L111.0 132.0 Q110.35 132.0 109.85 131.55 109.4 131.1 109.4 130.4 109.4 129.75 109.85 129.25 110.35 128.8 111.0 128.8 L153.3 128.8 Q154.0 128.8 154.45 129.25 154.9 129.75 154.9 130.4 154.9 131.1 154.45 131.55 L153.3 132.0" fill="#231f20" fill-rule="evenodd" stroke="none" class="line" />
      <path d="M16.5 127.45 Q17.0 127.0 17.65 127.0 18.3 127.0 18.75 127.45 19.25 127.95 19.25 128.6 L19.25 130.4 Q19.25 131.05 18.75 131.55 18.3 132.0 17.65 132.0 17.0 132.0 16.5 131.55 16.05 131.1 16.05 130.4 L16.05 128.6 Q16.05 127.95 16.5 127.45" fill="#231f20" fill-rule="evenodd" stroke="none" class="line" />
      <path d="M153.3 132.0 Q152.65 132.0 152.15 131.55 151.7 131.1 151.7 130.4 L151.7 128.6 Q151.7 127.95 152.15 127.45 152.65 127.0 153.3 127.0 154.0 127.0 154.45 127.45 154.9 127.95 154.9 128.6 L154.9 130.4 Q154.9 131.1 154.45 131.55 L153.3 132.0" fill="#231f20" fill-rule="evenodd" stroke="none" class="line" />
      <path d="M59.9 108.25 L17.65 108.25 Q17.0 108.25 16.5 107.75 16.05 107.3 16.05 106.65 16.05 106.0 16.5 105.5 17.0 105.05 17.65 105.05 L59.9 105.05 Q60.6 105.05 61.05 105.5 61.5 106.0 61.5 106.65 61.5 107.3 61.05 107.75 60.55 108.25 59.9 108.25" fill="#231f20" fill-rule="evenodd" stroke="none" class="line" />
      <path d="M153.3 108.25 L111.0 108.25 Q110.35 108.25 109.85 107.75 109.4 107.3 109.4 106.65 109.4 106.0 109.85 105.5 110.35 105.05 111.0 105.05 L153.3 105.05 Q154.0 105.05 154.45 105.5 154.9 106.0 154.9 106.65 154.9 107.3 154.45 107.75 153.95 108.25 153.3 108.25" fill="#231f20" fill-rule="evenodd" stroke="none" class="line" />
      <path d="M153.3 110.05 Q152.65 110.05 152.15 109.55 151.7 109.1 151.7 108.45 L151.7 106.65 Q151.7 106.0 152.15 105.5 152.65 105.05 153.3 105.05 154.0 105.05 154.45 105.5 154.9 106.0 154.9 106.65 L154.9 108.45 Q154.9 109.1 154.45 109.55 153.95 110.05 153.3 110.05" fill="#231f20" fill-rule="evenodd" stroke="none" class="line" />
      <path d="M17.65 110.05 Q17.0 110.05 16.5 109.55 16.05 109.1 16.05 108.45 L16.05 106.65 Q16.05 106.0 16.5 105.5 17.0 105.05 17.65 105.05 18.3 105.05 18.75 105.5 19.25 106.0 19.25 106.65 L19.25 108.45 Q19.25 109.1 18.75 109.55 18.3 110.05 17.65 110.05" fill="#231f20" fill-rule="evenodd" stroke="none" class="line" />
      <path d="M66.6 116.35 Q65.7 116.35 65.1 117.0 64.45 117.65 64.45 118.5 64.45 119.4 65.1 120.05 65.7 120.65 66.6 120.65 67.45 120.65 68.1 120.05 68.7 119.4 68.7 118.5 68.7 117.65 68.1 117.0 67.45 116.35 66.6 116.35 M68.8 116.25 Q69.7 117.2 69.7 118.5 69.7 119.8 68.8 120.75 67.9 121.65 66.6 121.65 65.3 121.65 64.35 120.75 63.45 119.8 63.45 118.5 63.45 117.2 64.35 116.25 65.3 115.35 66.6 115.35 67.9 115.35 68.8 116.25" fill="#231f20" fill-rule="evenodd" stroke="none" class="line" />
      <path d="M102.8 117.0 Q102.15 117.65 102.15 118.5 102.15 119.4 102.8 120.05 103.4 120.65 104.3 120.65 105.2 120.65 105.85 120.05 106.45 119.4 106.45 118.5 106.45 117.65 105.85 117.0 105.2 116.35 104.3 116.35 103.4 116.35 102.8 117.0 M104.3 115.35 Q105.6 115.35 106.55 116.25 107.45 117.2 107.45 118.5 107.45 119.8 106.55 120.75 105.6 121.65 104.3 121.65 103.0 121.65 102.05 120.75 101.15 119.8 101.15 118.5 101.15 117.2 102.05 116.25 103.0 115.35 104.3 115.35" fill="#231f20" fill-rule="evenodd" stroke="none" class="line" />
      <path d="M74.45 121.65 Q73.95 121.65 73.95 121.15 L73.95 115.85 Q73.95 115.35 74.45 115.35 74.95 115.35 74.95 115.85 L74.95 121.15 Q74.95 121.65 74.45 121.65" fill="#231f20" fill-rule="evenodd" stroke="none" class="line" />
      <path d="M74.3 132.85 L96.6 132.85 Q97.1 132.85 97.1 133.35 97.1 133.85 96.6 133.85 L74.3 133.85 Q73.8 133.85 73.8 133.35 73.8 132.85 74.3 132.85" fill="#231f20" fill-rule="evenodd" stroke="none" class="line" />
      <path d="M74.3 130.8 L96.6 130.8 Q97.1 130.8 97.1 131.3 97.1 131.8 96.6 131.8 L74.3 131.8 Q73.8 131.8 73.8 131.3 73.8 130.8 74.3 130.8" fill="#231f20" fill-rule="evenodd" stroke="none" class="line" />
      <path d="M74.3 103.15 L96.6 103.15 Q97.1 103.15 97.1 103.65 97.1 104.15 96.6 104.15 L74.3 104.15 Q73.8 104.15 73.8 103.65 73.8 103.15 74.3 103.15" fill="#231f20" fill-rule="evenodd" stroke="none" class="line" />
      <path d="M74.3 105.25 L96.6 105.25 Q97.1 105.25 97.1 105.75 97.1 106.25 96.6 106.25 L74.3 106.25 Q73.8 106.25 73.8 105.75 73.8 105.25 74.3 105.25" fill="#231f20" fill-rule="evenodd" stroke="none" class="line" />
      <path d="M91.1 176.3 L85.45 176.3 Q84.95 176.3 84.95 175.8 84.95 175.3 85.45 175.3 L91.1 175.3 Q91.6 175.3 91.6 175.8 91.6 176.3 91.1 176.3" fill="#231f20" fill-rule="evenodd" stroke="none" class="line" />
      <path d="M79.8 175.3 L85.45 175.3 Q85.95 175.3 85.95 175.8 85.95 176.3 85.45 176.3 L79.8 176.3 Q79.3 176.3 79.3 175.8 79.3 175.3 79.8 175.3" fill="#231f20" fill-rule="evenodd" stroke="none" class="line" />
      <path d="M91.1 61.75 L79.8 61.75 Q79.3 61.75 79.3 61.25 79.3 60.75 79.8 60.75 L91.1 60.75 Q91.6 60.75 91.6 61.25 91.6 61.75 91.1 61.75" fill="#231f20" fill-rule="evenodd" stroke="none" class="line" />
      <path d="M91.1 225.95 L79.8 225.95 Q79.3 225.95 79.3 225.45 79.3 224.95 79.8 224.95 L91.1 224.95 Q91.6 224.95 91.6 225.45 91.6 225.95 91.1 225.95" fill="#231f20" fill-rule="evenodd" stroke="none" class="line" />
      <path d="M91.1 12.15 L79.8 12.15 Q79.3 12.15 79.3 11.65 79.3 11.15 79.8 11.15 L91.1 11.15 Q91.6 11.15 91.6 11.65 91.6 12.15 91.1 12.15" fill="#231f20" fill-rule="evenodd" stroke="none" class="line" />
      <path d="M169.3 17.4 L152.1 17.4 Q151.6 17.4 151.6 16.9 151.6 16.4 152.1 16.4 L169.3 16.4 Q169.8 16.4 169.8 16.9 169.8 17.4 169.3 17.4" fill="#231f20" fill-rule="evenodd" stroke="none" class="line" />
      <path d="M167.85 31.0 Q167.35 31.0 167.35 30.5 L167.35 28.8 Q167.35 28.3 167.85 28.3 168.35 28.3 168.35 28.8 L168.35 30.5 Q168.35 31.0 167.85 31.0" fill="#231f20" fill-rule="evenodd" stroke="none" class="line" />
      <path d="M153.6 31.0 Q153.1 31.0 153.1 30.5 L153.1 28.8 Q153.1 28.3 153.6 28.3 154.1 28.3 154.1 28.8 L154.1 30.5 Q154.1 31.0 153.6 31.0" fill="#231f20" fill-rule="evenodd" stroke="none" class="line" />
      <path d="M169.3 16.8 L152.1 16.8 Q151.6 16.8 151.6 16.3 151.6 15.8 152.1 15.8 L169.3 15.8 Q169.8 15.8 169.8 16.3 169.8 16.8 169.3 16.8" fill="#231f20" fill-rule="evenodd" stroke="none" class="line" />
      <path d="M18.8 220.65 L1.6 220.65 Q1.1 220.65 1.1 220.15 1.1 219.65 1.6 219.65 L18.8 219.65 Q19.3 219.65 19.3 220.15 19.3 220.65 18.8 220.65" fill="#231f20" fill-rule="evenodd" stroke="none" class="line" />
      <path d="M17.35 208.75 Q16.85 208.75 16.85 208.25 L16.85 206.6 Q16.85 206.1 17.35 206.1 17.85 206.1 17.85 206.6 L17.85 208.25 Q17.85 208.75 17.35 208.75" fill="#231f20" fill-rule="evenodd" stroke="none" class="line" />
      <path d="M3.05 208.75 Q2.55 208.75 2.55 208.25 L2.55 206.6 Q2.55 206.1 3.05 206.1 3.55 206.1 3.55 206.6 L3.55 208.25 Q3.55 208.75 3.05 208.75" fill="#231f20" fill-rule="evenodd" stroke="none" class="line" />
      <path d="M18.8 221.25 L1.6 221.25 Q1.1 221.25 1.1 220.75 1.1 220.25 1.6 220.25 L18.8 220.25 Q19.3 220.25 19.3 220.75 19.3 221.25 18.8 221.25" fill="#231f20" fill-rule="evenodd" stroke="none" class="line" />
      <path d="M18.8 17.4 L1.6 17.4 Q1.1 17.4 1.1 16.9 1.1 16.4 1.6 16.4 L18.8 16.4 Q19.3 16.4 19.3 16.9 19.3 17.4 18.8 17.4" fill="#231f20" fill-rule="evenodd" stroke="none" class="line" />
      <path d="M17.35 31.0 Q16.85 31.0 16.85 30.5 L16.85 28.8 Q16.85 28.3 17.35 28.3 17.85 28.3 17.85 28.8 L17.85 30.5 Q17.85 31.0 17.35 31.0" fill="#231f20" fill-rule="evenodd" stroke="none" class="line" />
      <path d="M3.05 31.0 Q2.55 31.0 2.55 30.5 L2.55 28.8 Q2.55 28.3 3.05 28.3 3.55 28.3 3.55 28.8 L3.55 30.5 Q3.55 31.0 3.05 31.0" fill="#231f20" fill-rule="evenodd" stroke="none" class="line" />
      <path d="M18.8 16.8 L1.6 16.8 Q1.1 16.8 1.1 16.3 1.1 15.8 1.6 15.8 L18.8 15.8 Q19.3 15.8 19.3 16.3 19.3 16.8 18.8 16.8" fill="#231f20" fill-rule="evenodd" stroke="none" class="line" />
      <path d="M167.85 208.75 Q167.35 208.75 167.35 208.25 L167.35 206.6 Q167.35 206.1 167.85 206.1 168.35 206.1 168.35 206.6 L168.35 208.25 Q168.35 208.75 167.85 208.75" fill="#231f20" fill-rule="evenodd" stroke="none" class="line" />
      <path d="M152.1 219.65 L169.3 219.65 Q169.8 219.65 169.8 220.15 169.8 220.65 169.3 220.65 L152.1 220.65 Q151.6 220.65 151.6 220.15 151.6 219.65 152.1 219.65" fill="#231f20" fill-rule="evenodd" stroke="none" class="line" />
      <path d="M153.6 208.75 Q153.1 208.75 153.1 208.25 L153.1 206.6 Q153.1 206.1 153.6 206.1 154.1 206.1 154.1 206.6 L154.1 208.25 Q154.1 208.75 153.6 208.75" fill="#231f20" fill-rule="evenodd" stroke="none" class="line" />
      <path d="M152.1 220.25 L169.3 220.25 Q169.8 220.25 169.8 220.75 169.8 221.25 169.3 221.25 L152.1 221.25 Q151.6 221.25 151.6 220.75 151.6 220.25 152.1 220.25" fill="#231f20" fill-rule="evenodd" stroke="none" class="line" />
      <path d="M155.65 30.5 L155.65 206.6 Q155.65 207.1 155.15 207.1 154.65 207.1 154.65 206.6 L154.65 30.5 Q154.65 30.0 155.15 30.0 155.65 30.0 155.65 30.5" fill="#231f20" fill-rule="evenodd" stroke="none" class="line" />
      <path d="M166.75 30.5 L166.75 206.6 Q166.75 207.1 166.25 207.1 165.75 207.1 165.75 206.6 L165.75 30.5 Q165.75 30.0 166.25 30.0 166.75 30.0 166.75 30.5" fill="#231f20" fill-rule="evenodd" stroke="none" class="line" />
      <path d="M5.15 30.5 L5.15 206.6 Q5.15 207.1 4.65 207.1 4.15 207.1 4.15 206.6 L4.15 30.5 Q4.15 30.0 4.65 30.0 5.15 30.0 5.15 30.5" fill="#231f20" fill-rule="evenodd" stroke="none" class="line" />
      <path d="M16.2 30.5 L16.2 206.6 Q16.2 207.1 15.7 207.1 15.2 207.1 15.2 206.6 L15.2 30.5 Q15.2 30.0 15.7 30.0 16.2 30.0 16.2 30.5" fill="#231f20" fill-rule="evenodd" stroke="none" class="line" />
      <path d="M59.0 129.1 L17.65 129.1 Q17.15 129.1 17.15 128.6 17.15 128.1 17.65 128.1 L59.0 128.1 Q59.5 128.1 59.5 128.6 59.5 129.1 59.0 129.1" fill="#231f20" fill-rule="evenodd" stroke="none" class="line" />
      <path d="M153.3 129.1 L111.85 129.1 Q111.35 129.1 111.35 128.6 111.35 128.1 111.85 128.1 L153.3 128.1 Q153.8 128.1 153.8 128.6 153.8 129.1 153.3 129.1" fill="#231f20" fill-rule="evenodd" stroke="none" class="line" />
      <path d="M59.0 108.95 L17.65 108.95 Q17.15 108.95 17.15 108.45 17.15 107.95 17.65 107.95 L59.0 107.95 Q59.5 107.95 59.5 108.45 59.5 108.95 59.0 108.95" fill="#231f20" fill-rule="evenodd" stroke="none" class="line" />
      <path d="M153.3 108.95 L111.85 108.95 Q111.35 108.95 111.35 108.45 111.35 107.95 111.85 107.95 L153.3 107.95 Q153.8 107.95 153.8 108.45 153.8 108.95 153.3 108.95" fill="#231f20" fill-rule="evenodd" stroke="none" class="line" />
    </g>
  </defs>
  <g transform="matrix(1.0, 0.0, 0.0, 1.0, 0.0, 0.0)">
    <use height="237.05" id="Fill" transform="matrix(0.5848, 0.0, 0.0, 0.4218, -0.0292, 0.0)" width="171.0" xlink:href="#sprite0" />
    <use height="237.05" id="Line" transform="matrix(0.5848, 0.0, 0.0, 0.4221, -0.0292, 0.0)" width="171.0" xlink:href="#sprite1" />
  </g>
</svg>